<?xml version="1.0" encoding="UTF-8" standalone="no"?>
<svg
   width="429"
   height="96.531532"
   viewBox="0 0 369.91304 83.236068"
   class="css-1j8o68f"
   version="1.1"
   id="svg13"
   xmlns:inkscape="http://www.inkscape.org/namespaces/inkscape"
   xmlns:sodipodi="http://sodipodi.sourceforge.net/DTD/sodipodi-0.dtd"
   xmlns="http://www.w3.org/2000/svg">
  <defs
     id="SvgjsDefs1256" />
  <g
     id="SvgjsG1257"
     featurekey="UFHKJ9-0"
     transform="matrix(1.2766268,0,0,1.2766268,-26.298513,-23.617597)"
     fill="#ffffff">
    <g
       id="g7">
      <path
         d="m 20.6,23.2 25.2,-4.4 c 3.1,-0.4 6.1,-0.4 9.1,0 l 25.3,4.5 V 58.8 L 80,58.9 c -9.2,14.4 -26.1,23.5 -27.3,24.2 -0.6,0.4 -1.3,0.6 -2.1,0.6 -0.7,0 -1.5,-0.2 -2.3,-0.5 C 47.4,82.7 28,72.5 20.8,58.8 L 20.7,58.5 V 23.2 Z M 46.1,21.1 23,25.2 V 58 c 6.9,12.8 26.1,23 26.3,23.1 0.7,0.3 1.6,0.4 2.1,0.1 l 0.1,-0.1 C 51.7,81 68.7,71.9 77.8,58 V 25.2 L 54.6,21.1 c -2.7,-0.3 -5.7,-0.4 -8.5,0 z"
         id="path3" />
      <path
         d="m 54.1,23.8 c -0.9,-0.1 -1.9,-0.2 -2.9,-0.2 -1.6,0 -3.2,0 -4.8,0.2 l -20.6,3.6 v 29.8 l -0.1,0.1 0.1,0.1 v 0.3 l 0.4,0.6 c 0.9,1.2 1.9,2.5 3.1,3.9 1.2,1.4 2.6,2.7 4,4 1.3,1.2 2.7,2.4 4.3,3.7 1.4,1.1 2.9,2.2 4.5,3.5 1.5,1.1 3,2.2 4.7,3.3 0.8,0.5 1.5,1 2,1.3 l 1.5,0.7 1.2,-0.8 C 58.1,73.6 67.4,66.7 74.2,57.8 l 0.5,-0.7 V 27.4 Z M 39.8,27.4 28.2,39 V 29.4 Z M 28.3,48.6 50.9,26 c 0.1,0 0.2,0 0.3,0 1,0 1.8,0.1 2.6,0.2 l 2.6,0.5 -28.1,28.1 z m 3.3,12.5 33,-33 5.3,0.9 -35.2,35.2 c -1.1,-1.1 -2.2,-2.1 -3.1,-3.1 z m 8.2,7.5 32.7,-32.7 v 6.2 L 43.3,71.3 C 42,70.4 40.9,69.5 39.8,68.6 Z M 72.5,56.5 C 65.9,65 56.8,71.8 50.4,76 H 50.3 50.2 C 49.9,75.8 49.4,75.5 49,75.2 L 72.5,51.7 Z"
         id="path5" />
    </g>
  </g>
  <g
     id="SvgjsG1258"
     featurekey="XAPJzK-0"
     transform="matrix(3.0685217,0,0,3.0685217,91.704071,1.6809267)"
     fill="#ffffff">
    <path
       d="m 12.8,6.76 v 12.8 c 0,0.6 -2.26,0.6 -2.26,0 v -6.64 c -2.32,6.46 -2.36,6.54 -2.4,6.62 -0.26,0.6 -1.78,0.6 -2.04,0 -0.04,-0.08 -0.08,-0.16 -2.42,-6.7 v 6.72 c 0,0.6 -2.28,0.6 -2.28,0 V 6.8 6.76 c 0,-0.98 2.02,-0.94 2.22,-0.4 l 3.5,9.2 3.44,-9.2 c 0.2,-0.54 2.24,-0.6 2.24,0.4 z m 7.66,-0.4 c 0.22,-0.6 2.52,-0.42 2.1,0.58 -0.92,2.2 -2.56,6.22 -2.5,6.12 v 6.5 c 0,0.6 -2.28,0.6 -2.28,0 v -6.5 L 15.26,7.02 C 14.8,5.92 17.08,5.7 17.38,6.44 l 1.54,3.94 c 0.42,-1.12 1.1,-2.82 1.54,-4.02 z m 15.42,9.84 c 0,-0.6 2.22,-0.6 2.22,0 0,2.24 -1.16,3.8 -3.28,3.8 -2.22,0 -3.74,-1.38 -3.8,-3.5 V 16.46 9.56 9.52 c 0.06,-2.14 1.66,-3.56 3.8,-3.52 2.24,0.04 3.28,1.6 3.28,3.82 0,0.6 -2.22,0.6 -2.22,0 0,-0.22 0,-0.4 -0.04,-0.6 C 35.72,8.04 34.3,8.26 34,8.42 33.42,8.7 33.3,9.4 33.3,9.88 v 6.26 c 0.02,0.48 0.12,1.18 0.7,1.46 0.3,0.16 1.72,0.38 1.84,-0.78 0.04,-0.2 0.04,-0.4 0.04,-0.62 z m 9.72,-9.78 2.08,12.7 c 0.16,1 -2.1,1.1 -2.22,0.38 l -0.4,-2.4 h -2.34 l -0.4,2.4 c -0.1,0.6 -2.38,0.62 -2.22,-0.38 l 2.1,-12.7 c 0.1,-0.6 3.32,-0.54 3.4,0 z m -0.92,8.42 -0.78,-4.78 -0.8,4.78 z m 16.8,-8.08 v 12.8 c 0,0.6 -2.26,0.6 -2.26,0 v -6.64 c -2.32,6.46 -2.36,6.54 -2.4,6.62 -0.26,0.6 -1.78,0.6 -2.04,0 -0.04,-0.08 -0.08,-0.16 -2.42,-6.7 v 6.72 c 0,0.6 -2.28,0.6 -2.28,0 V 6.8 6.76 c 0,-0.98 2.02,-0.94 2.22,-0.4 l 3.5,9.2 3.44,-9.2 c 0.2,-0.54 2.24,-0.6 2.24,0.4 z m 10.18,3.58 c -0.02,1.28 -0.2,2.56 -1.46,3.5 -1.06,0.82 -2.38,0.64 -3.64,0.64 v 5.08 c 0,0.6 -2.28,0.6 -2.28,0 V 7.26 C 64.28,6.32 64.3,6.02 65.7,6 h 2.06 c 0.72,0 1.52,0.02 2.14,0.42 1.36,0.86 1.78,2.38 1.76,3.92 z m -2.28,0.42 C 69.4,10.54 69.4,9.74 69.36,9.36 69.28,8.62 69,8.24 68.08,8.24 h -1.52 v 3.96 h 1.72 c 0.92,0 1.06,-1.12 1.1,-1.44 z M 81.56,6.44 v 8.6 c 0,6.6 -7.8,6.64 -7.8,-0.02 v -8.6 c 0,-0.6 2.28,-0.6 2.28,0 v 8.6 c 0,3.66 3.24,3.68 3.24,0.02 v -8.6 c 0,-0.6 2.28,-0.6 2.28,0 z m 9.1,9.98 c 0.04,0.68 -0.14,1.44 -0.52,2 -0.18,0.26 -0.38,0.52 -0.64,0.74 -0.16,0.12 -0.32,0.26 -0.5,0.36 -0.18,0.1 -0.38,0.18 -0.56,0.26 -0.6,0.26 -1.32,0.28 -1.94,0.12 -0.32,-0.08 -0.62,-0.2 -0.9,-0.38 -0.26,-0.16 -0.54,-0.36 -0.74,-0.6 -0.22,-0.24 -0.42,-0.5 -0.56,-0.8 -0.08,-0.18 -0.18,-0.38 -0.24,-0.58 -0.04,-0.2 -0.1,-0.72 -0.1,-0.92 0,-0.6 2.24,-0.6 2.24,0 0,0.5 0.78,1.84 1.98,0.64 0.5,-0.72 0.04,-1.54 -0.4,-2.14 -0.68,-0.84 -1.56,-1.48 -2.28,-2.28 -0.42,-0.46 -0.84,-0.98 -1.1,-1.56 -0.14,-0.32 -0.26,-0.64 -0.34,-1 -0.3,-1.66 0.22,-4.62 3.84,-4.28 1.82,0.18 2.62,1.74 2.62,2.8 0,0.6 -2.28,0.6 -2.28,0 0,-0.8 -2.26,-0.9 -1.98,0.86 0.04,0.18 0.08,0.36 0.16,0.54 0.12,0.26 0.26,0.48 0.42,0.7 0.2,0.26 0.4,0.48 0.64,0.7 0.88,0.86 1.88,1.64 2.52,2.74 0.38,0.64 0.6,1.34 0.66,2.08 z"
       id="path10" />
  </g>
</svg>
