<?xml version="1.0" encoding="UTF-8" standalone="no"?>
<svg
  width="429"
  height="96.531532"
  viewBox="0 0 369.91304 83.236068"
  class="css-1j8o68f"
  version="1.1"
  id="svg13"
  xmlns="http://www.w3.org/2000/svg">
  <defs
    id="SvgjsDefs1256" />
  <g
    id="SvgjsG1257"
    featurekey="UFHKJ9-0"
    transform="matrix(1.2766268,0,0,1.2766268,-26.298513,-23.617597)"
    fill="#000000">
    <g
      id="g7">
      <path
        d="m 20.6,23.2 25.2,-4.4 c 3.1,-0.4 6.1,-0.4 9.1,0 l 25.3,4.5 V 58.8 L 80,58.9 c -9.2,14.4 -26.1,23.5 -27.3,24.2 -0.6,0.4 -1.3,0.6 -2.1,0.6 -0.7,0 -1.5,-0.2 -2.3,-0.5 C 47.4,82.7 28,72.5 20.8,58.8 L 20.7,58.5 V 23.2 Z M 46.1,21.1 23,25.2 V 58 c 6.9,12.8 26.1,23 26.3,23.1 0.7,0.3 1.6,0.4 2.1,0.1 l 0.1,-0.1 C 51.7,81 68.7,71.9 77.8,58 V 25.2 L 54.6,21.1 c -2.7,-0.3 -5.7,-0.4 -8.5,0 z"
        id="path3" />
      <path
        d="m 54.1,23.8 c -0.9,-0.1 -1.9,-0.2 -2.9,-0.2 -1.6,0 -3.2,0 -4.8,0.2 l -20.6,3.6 v 29.8 l -0.1,0.1 0.1,0.1 v 0.3 l 0.4,0.6 c 0.9,1.2 1.9,2.5 3.1,3.9 1.2,1.4 2.6,2.7 4,4 1.3,1.2 2.7,2.4 4.3,3.7 1.4,1.1 2.9,2.2 4.5,3.5 1.5,1.1 3,2.2 4.7,3.3 0.8,0.5 1.5,1 2,1.3 l 1.5,0.7 1.2,-0.8 C 58.1,73.6 67.4,66.7 74.2,57.8 l 0.5,-0.7 V 27.4 Z M 39.8,27.4 28.2,39 V 29.4 Z M 28.3,48.6 50.9,26 c 0.1,0 0.2,0 0.3,0 1,0 1.8,0.1 2.6,0.2 l 2.6,0.5 -28.1,28.1 z m 3.3,12.5 33,-33 5.3,0.9 -35.2,35.2 c -1.1,-1.1 -2.2,-2.1 -3.1,-3.1 z m 8.2,7.5 32.7,-32.7 v 6.2 L 43.3,71.3 C 42,70.4 40.9,69.5 39.8,68.6 Z M 72.5,56.5 C 65.9,65 56.8,71.8 50.4,76 H 50.3 50.2 C 49.9,75.8 49.4,75.5 49,75.2 L 72.5,51.7 Z"
        id="path5" />
    </g>
  </g>
  <g id="SvgjsG1985" featurekey="XAPJzK-0"
     transform="matrix(4.4369134946122015,0,0,4.4369134946122015,91.3856080191729,-30.96959915351958)" fill="#000000">
    <path
      d="M2.58 18.26 l-0.04 0 c-0.04 0 -0.08 -0.02 -0.1 -0.04 c-0.04 -0.04 -0.06 -0.06 -0.1 -0.06 l-0.14 0.08 l-0.06 -0.02 c-0.04 -0.02 -0.08 -0.06 -0.08 -0.1 c0 -0.08 -0.06 -0.12 -0.16 -0.12 c-0.08 0 -0.26 -0.1 -0.28 -0.14 c0 -0.02 -0.06 -0.1 -0.14 -0.2 s-0.14 -0.18 -0.14 -0.2 s-0.02 -0.04 -0.04 -0.06 c-0.04 -0.04 -0.06 -0.06 -0.06 -0.08 l0.06 -0.14 l-0.06 -0.08 l0.02 -0.02 c0.02 0 0.02 -0.02 0.02 -0.06 c-0.02 -0.04 -0.02 -0.1 -0.02 -0.14 c-0.02 -0.06 -0.02 -0.1 -0.04 -0.12 l-0.04 -0.22 c0 -0.12 -0.02 -0.28 -0.04 -0.36 l-0.02 -0.16 l0 -0.1 c0 -0.02 0 -0.08 0.02 -0.12 l0.04 -0.06 l-0.06 0.02 c-0.02 0 -0.04 0 -0.04 -0.02 l0.06 -0.06 l-0.02 -0.02 c0 -0.02 -0.02 -0.22 -0.02 -0.46 s-0.02 -0.44 -0.02 -0.46 l0.02 -0.16 l-0.04 -0.1 l0.02 -0.08 c0.02 -0.06 0.02 -0.12 0.02 -0.14 c-0.02 -0.02 -0.06 -1.5 -0.06 -2.08 c0 -0.38 0.02 -0.46 0.16 -0.46 l0.08 0 c0.12 0 0.34 0.12 0.34 0.18 c0 0 0.02 0.02 0.06 0.02 l0.08 0.04 c0.04 0.08 0.22 0.18 0.26 0.18 l0.02 0 c0.02 0 0.04 0.02 0.06 0.06 s0.06 0.08 0.08 0.08 c0.04 0 0.06 0.06 0.08 0.12 c0 0.04 0.04 0.12 0.08 0.14 c0.06 0.06 0.12 0.38 0.12 0.96 c0 0.3 0.02 0.42 0.04 0.42 l0.06 0.02 l-0.02 0.04 l-0.08 0.12 c0 0.08 0 0.1 0.04 0.12 l0.02 0 c0.06 0 0.18 -0.1 0.18 -0.18 l0 -0.04 c0 -0.02 0 -0.04 0.02 -0.04 c0.02 -0.02 0.02 -0.06 0.02 -0.08 c0 -0.04 0.02 -0.06 0.06 -0.06 c0.02 0 0.04 -0.02 0.04 -0.04 c-0.02 -0.02 -0.04 -0.04 -0.06 -0.04 c-0.04 0 -0.04 -0.02 -0.04 -0.04 l0.02 -0.08 l0.04 -0.04 l-0.02 -0.02 l-0.04 0 c0 -0.04 0.08 -0.06 0.14 -0.06 l0.02 0 c0.04 0 0.1 -0.1 0.1 -0.14 l-0.02 -0.04 l0.02 0 c0.04 0 0.22 -0.28 0.26 -0.4 c0.04 -0.08 0.12 -0.22 0.24 -0.38 l0.08 -0.14 c0 -0.04 0.02 -0.08 0.04 -0.12 l0.08 -0.16 l-0.04 0.02 c-0.02 0.02 -0.04 0.02 -0.06 0.02 c-0.04 0 -0.08 0.02 -0.1 0.06 l-0.06 0.04 l-0.02 -0.04 c0 -0.02 0 -0.02 0.02 -0.02 c0.02 -0.02 0.06 -0.04 0.06 -0.06 c0 -0.04 0.18 -0.32 0.28 -0.42 c0.04 -0.06 0.12 -0.12 0.16 -0.14 l0.24 -0.08 l0.2 0.04 c0.18 0.02 0.46 0.14 0.64 0.28 l0.12 0.06 c0.02 0 0.08 0.04 0.14 0.1 s0.14 0.12 0.18 0.14 c0.12 0.06 0.38 0.4 0.52 0.7 c0.1 0.2 0.12 0.26 0.12 0.38 c0 0.16 0.02 0.28 0.06 0.28 c0.02 0 0.02 0.04 0.02 0.08 l-0.02 0.06 l0.06 0 l0 0.02 c0 0.02 0 0.06 -0.04 0.12 l-0.04 0.1 c0 0.02 0 0.02 0.02 0.02 s0.04 -0.02 0.04 -0.06 s0.08 -0.14 0.14 -0.14 c0.04 0 0.1 -0.04 0.1 -0.06 l-0.02 -0.02 c-0.02 0 -0.04 0 -0.04 -0.02 s0.02 -0.04 0.04 -0.04 s0.06 -0.1 0.06 -0.16 l-0.02 -0.06 l-0.02 -0.02 c0 -0.02 0.02 -0.04 0.04 -0.04 s0.02 -0.02 0.02 -0.02 l0 -0.02 l0.02 -0.02 l0.02 0.02 c0.04 0 0.08 -0.08 0.08 -0.14 l0 -0.02 c0 -0.02 0.02 -0.1 0.06 -0.16 l0.06 -0.06 l0 0.02 c0 0.02 0 0.04 0.02 0.04 l0.02 0 c0.04 -0.02 0.18 -0.18 0.18 -0.26 l0 -0.04 l-0.1 0.08 l0.02 -0.08 c0.06 -0.08 0.12 -0.16 0.16 -0.16 l0.02 0 l-0.02 -0.02 c0 -0.04 0.18 -0.34 0.28 -0.42 l0.02 -0.02 l0 0.02 l-0.06 0.12 l-0.02 0.06 l0.04 -0.02 c0.04 -0.02 0.16 -0.18 0.16 -0.22 l-0.04 -0.04 c0 -0.02 0.02 -0.08 0.08 -0.14 l0.08 -0.08 l0 0.12 c0.02 0 0.04 -0.02 0.04 -0.06 c0 -0.02 0.02 -0.04 0.04 -0.04 c0.04 0 0.04 -0.02 0.04 -0.04 l-0.02 -0.08 c0 -0.08 0.14 -0.22 0.22 -0.22 l0.04 0 l-0.04 -0.12 l0.06 0 c0.02 0 0.02 0 0.02 -0.02 c0 -0.04 0.02 -0.06 0.04 -0.06 s0.04 -0.02 0.06 -0.04 l0.02 -0.02 l0.02 0 c0.02 0 0.1 0 0.18 -0.02 c0.06 -0.02 0.1 -0.02 0.14 -0.02 c0.06 0 0.12 0.02 0.2 0.04 c0.12 0.04 0.24 0.1 0.28 0.14 c0.14 0.12 0.32 0.26 0.5 0.38 c0.1 0.08 0.18 0.16 0.22 0.24 l0.06 0.14 l0.04 0.08 c0.02 0.02 0.04 0.04 0.04 0.06 l0.04 0.08 c0.12 0.16 0.2 0.44 0.2 0.86 l0 1.34 s0.02 0.2 0.02 0.44 l0.04 0.84 l0.02 0.46 l-0.04 -0.06 c-0.02 -0.02 -0.02 -0.04 -0.04 -0.04 l-0.02 0.06 l0.02 0.04 c0.02 0.02 0.02 0.08 0.02 0.16 l0 0.12 c0 0.14 0 0.22 0.02 0.26 l0.02 0.04 l-0.02 0.08 l-0.04 0.04 l-0.04 -0.02 c0 -0.02 -0.04 -0.02 -0.06 -0.02 s-0.04 0 -0.04 0.04 l0.04 0 c0.04 0 0.04 0 0.04 0.02 s0 0.02 -0.02 0.02 s-0.02 0.04 -0.02 0.1 s-0.02 0.08 -0.04 0.08 s-0.04 0 -0.04 -0.04 c-0.02 -0.02 -0.04 -0.04 -0.08 -0.04 c0 0 -0.02 0 -0.02 0.02 s-0.04 0.04 -0.06 0.06 c-0.04 0 -0.06 0.04 -0.06 0.06 s-0.02 0.04 -0.06 0.04 c-0.02 0 -0.02 0 -0.02 -0.02 l0.02 -0.08 l0.02 -0.04 l-0.04 -0.02 c-0.02 0 -0.04 -0.02 -0.06 -0.04 l-0.02 -0.04 l0 0.02 c0 0.02 -0.02 0.04 -0.06 0.04 l-0.06 0 c-0.06 0 -0.12 -0.02 -0.12 -0.04 s-0.04 -0.1 -0.12 -0.22 l-0.12 -0.22 c0 -0.02 -0.02 -0.04 -0.06 -0.08 c-0.04 -0.02 -0.08 -0.08 -0.1 -0.12 c-0.04 -0.1 -0.1 -0.48 -0.12 -0.64 c0 -0.04 0 -0.12 -0.02 -0.14 c-0.04 -0.12 -0.08 -0.92 -0.08 -1.62 l0.02 -0.72 c0 -0.12 0 -0.24 -0.02 -0.28 l0 -0.08 l-0.16 0.14 c0 0.02 -0.04 0.1 -0.1 0.18 l-0.1 0.16 c0 0.02 -0.08 0.08 -0.16 0.16 c-0.08 0.1 -0.16 0.18 -0.16 0.22 c0 0.1 -0.02 0.14 -0.04 0.14 s-0.08 0.08 -0.14 0.18 l-0.22 0.3 c-0.08 0.1 -0.14 0.2 -0.14 0.26 l0 0.04 l0.02 -0.02 c0 -0.02 0.04 -0.04 0.06 -0.04 s0.04 0.02 0.04 0.04 c0 0.04 -0.06 0.16 -0.14 0.28 c-0.2 0.3 -0.18 0.3 -0.38 0.68 c-0.12 0.22 -0.18 0.34 -0.2 0.34 l-0.02 0 l0.02 -0.08 c0 -0.02 0 -0.02 -0.02 -0.02 s-0.06 0.02 -0.1 0.08 l-0.02 0.08 l0.04 0.14 c0 0.02 0 0.02 -0.02 0.02 l-0.04 -0.04 l-0.04 -0.02 l-0.02 0.04 c0 0.02 -0.02 0.08 -0.04 0.1 c-0.12 0.2 -0.24 0.5 -0.24 0.58 l0 0.04 l0.02 -0.02 c0.02 -0.04 0.04 -0.08 0.04 -0.12 s0.02 -0.06 0.04 -0.06 c0.04 0 0.04 -0.02 0.04 -0.04 l-0.02 -0.02 l0.02 0 c0.02 0 0.04 -0.04 0.04 -0.06 c0 -0.04 0.02 -0.06 0.02 -0.06 c0.02 0 0.04 0.02 0.04 0.04 s-0.02 0.04 -0.04 0.06 l-0.02 0.08 c0 0.02 -0.02 0.06 -0.04 0.06 l-0.02 0.04 l-0.02 0.08 c-0.04 0.04 -0.08 0.2 -0.18 0.48 c-0.02 0.08 -0.04 0.22 -0.04 0.32 s0 0.2 -0.04 0.24 l-0.04 0.04 l0 -0.02 l-0.02 -0.04 l-0.02 0.04 l-0.06 0.02 l-0.02 0 l0 -0.04 c0 -0.02 0 -0.02 -0.02 -0.02 s-0.04 0 -0.04 0.02 l0 0.02 c0 0.04 -0.04 0.06 -0.08 0.06 l-0.08 0 l0.02 0.02 c0.02 0.02 0.04 0.04 0.04 0.06 l-0.02 0.06 c-0.02 0 -0.06 0 -0.08 -0.02 l-0.08 -0.02 c-0.08 -0.02 -0.1 -0.06 -0.12 -0.16 l0 -0.06 l-0.02 0.02 c-0.02 0.02 -0.04 0.02 -0.06 0.02 c-0.08 0 -0.2 -0.06 -0.2 -0.14 l-0.02 -0.02 l-0.08 0.02 c-0.08 0 -0.16 -0.08 -0.2 -0.18 c0 -0.04 -0.04 -0.08 -0.06 -0.1 c-0.04 -0.02 -0.06 -0.06 -0.06 -0.1 c0 -0.08 -0.04 -0.14 -0.2 -0.3 c-0.04 -0.02 -0.04 -0.06 -0.04 -0.1 c0.02 -0.04 0.04 -0.28 0.04 -0.52 c0.02 -0.26 0.02 -0.52 0.02 -0.58 c0.02 -0.06 0.02 -0.3 0.04 -0.52 c0 -0.36 0.02 -0.46 0.06 -0.46 l0.02 0 c0.02 0 0.04 -0.04 0.06 -0.16 l0 -0.06 c0 -0.04 0 -0.08 -0.02 -0.08 l-0.04 0.08 l-0.02 0.1 c-0.02 -0.08 -0.04 -0.08 -0.04 -0.26 c0 -0.2 0.04 -0.46 0.06 -0.48 l0.02 -0.04 l-0.02 0 l-0.02 -0.02 c0 -0.02 0 -0.12 -0.02 -0.22 l-0.02 -0.16 l-0.12 0.24 l0.02 0.04 c0 0.02 0 0.02 -0.02 0.02 s-0.1 0.08 -0.16 0.2 c-0.1 0.2 -0.14 0.28 -0.18 0.28 l-0.04 -0.02 c-0.04 0 -0.12 0.08 -0.14 0.14 l0.02 0.16 c0 0.1 -0.06 0.28 -0.14 0.34 l-0.02 0 l0.02 -0.02 l0 -0.04 l-0.04 0.04 c-0.08 0.06 -0.14 0.14 -0.14 0.18 l0.02 0 c0.02 0 0.04 -0.02 0.06 -0.04 l0.04 -0.04 l0 0.04 c0 0.06 -0.06 0.2 -0.1 0.2 c-0.02 0 -0.02 0.04 -0.04 0.08 l-0.02 0.12 c-0.02 0 -0.04 0 -0.04 0.02 l-0.18 0.44 l-0.14 0.3 c-0.06 0.14 -0.1 0.2 -0.12 0.2 l-0.02 -0.12 l-0.1 0.16 c-0.02 0 -0.04 0.04 -0.04 0.1 c-0.02 0.06 -0.04 0.12 -0.06 0.12 l-0.02 0.08 l0.08 -0.04 l0.08 -0.08 l0.02 0.02 l-0.14 0.36 c-0.1 0.22 -0.16 0.58 -0.16 0.82 c0 0.14 0 0.26 -0.02 0.28 c-0.02 0.04 -0.14 0.1 -0.26 0.14 z M7.76 11.62 l0.1 -0.1 l-0.02 -0.04 l-0.04 0 c-0.02 0 -0.04 0.04 -0.06 0.08 l0 0.02 c0 0.02 0 0.04 0.02 0.04 z M3.82 11.76 l0.12 -0.04 c0.02 -0.02 0.04 -0.02 0.04 -0.04 l-0.02 0 l-0.1 0.04 z M3.78 12.120000000000001 l0.02 -0.02 l0 -0.06 c-0.02 0 -0.04 0 -0.04 0.04 c0 0.02 0 0.04 0.02 0.04 z M7.2 12.3 l0.04 -0.06 l-0.02 0 l-0.04 0.02 c0 0.02 0 0.04 0.02 0.04 z M3.38 12.440000000000001 c-0.02 0 -0.02 -0.02 -0.02 -0.06 c0.02 -0.1 0.02 -0.1 0.1 -0.1 c0.04 0 0.1 0 0.1 0.02 s-0.14 0.14 -0.18 0.14 z M8.1 12.48 l0.04 -0.04 c0.02 -0.02 0.02 -0.04 0.02 -0.06 l0 -0.02 c-0.02 0 -0.02 0.02 -0.02 0.02 l-0.04 0.08 l0 0.02 z M3.24 12.8 l-0.08 -0.04 l0.04 -0.08 l0.14 -0.2 l0.02 0 l0.02 0.04 c0 0.06 -0.02 0.14 -0.06 0.2 s-0.06 0.08 -0.08 0.08 z M8.16 12.620000000000001 l0.04 -0.02 l-0.02 -0.04 l-0.04 0.04 c0 0.02 0 0.02 0.02 0.02 z M8.38 12.64 c0.02 0 0.02 0 0.02 -0.04 c0 -0.02 -0.02 -0.02 -0.02 -0.02 l-0.02 0.04 z M8.42 12.8 c0.02 0 0.04 -0.02 0.06 -0.04 s0.04 -0.08 0.04 -0.12 c0 -0.02 0 -0.04 -0.02 -0.04 c-0.04 0 -0.06 0.02 -0.06 0.04 l0.04 0.08 l-0.04 0.06 c-0.02 0 -0.02 0 -0.02 0.02 z M7.76 12.7 l0.02 -0.04 l-0.02 -0.04 l0 0.08 z M8.16 12.9 c0.06 0 0.14 -0.04 0.18 -0.1 l0.02 -0.06 c0 -0.02 0 -0.02 -0.04 -0.02 c-0.02 0 -0.04 0.02 -0.04 0.06 c-0.02 0.04 -0.06 0.08 -0.1 0.08 l-0.14 -0.06 l0 0.04 c0.02 0.04 0.06 0.06 0.12 0.06 z M3.08 13.1 c-0.02 0 -0.04 -0.02 -0.04 -0.04 l0 -0.04 c0 -0.04 0 -0.06 0.02 -0.06 l0.02 0.02 l0.04 0 l-0.04 -0.02 l-0.02 -0.06 l0.02 -0.04 c0.02 -0.02 0.04 -0.04 0.06 -0.04 s0.02 0.04 0.02 0.1 l0 0.08 c-0.02 0.06 -0.04 0.1 -0.08 0.1 z M7.72 12.879999999999999 c0 -0.02 -0.04 -0.04 -0.06 -0.04 l-0.02 0.02 c0 0.02 0.02 0.02 0.04 0.02 l0.04 0 z M8.06 13.14 l0.02 -0.02 l-0.02 -0.02 c0 -0.04 0 -0.06 0.02 -0.08 l0.02 -0.02 l-0.02 -0.02 c-0.02 0 -0.04 0.02 -0.06 0.04 c0 0.02 0.02 0.12 0.04 0.12 z M7.9 13.32 c0.02 0 0.04 -0.02 0.04 -0.04 l0 -0.02 l-0.02 0 c-0.02 0 -0.02 0 -0.02 0.02 l0 0.04 z M2.94 13.36 l0 -0.06 l0.02 0.04 z M6.6 13.36 l0.04 -0.06 l-0.02 0 c-0.02 0 -0.04 0.02 -0.04 0.04 s0 0.02 0.02 0.02 z M8.08 13.36 l0.04 -0.02 c0 -0.02 0 -0.02 -0.02 -0.02 s-0.02 0 -0.02 0.02 l0 0.02 z M8.26 13.5 l-0.02 0 l0.02 -0.08 c0.04 -0.06 0.08 -0.1 0.1 -0.1 l0 0.02 c0 0.06 -0.04 0.14 -0.1 0.16 z M7.6 13.76 l0.1 -0.06 l0.04 -0.06 l-0.02 -0.02 c-0.02 -0.02 -0.02 -0.06 -0.02 -0.08 c0 -0.04 0 -0.08 0.02 -0.08 l0.04 -0.06 l0 -0.06 c-0.02 0 -0.06 0.02 -0.08 0.1 c-0.04 0.04 -0.08 0.08 -0.1 0.08 l-0.02 0 l-0.04 0.14 c-0.04 0 -0.04 0.02 -0.04 0.04 l0.04 0.02 l0.08 -0.02 l0.02 0.02 z M7.86 13.440000000000001 c0.02 0 0.04 -0.04 0.04 -0.06 s0 -0.04 -0.02 -0.04 l-0.06 0.1 l0.04 0 z M6.1 13.559999999999999 l-0.02 -0.04 c0 -0.02 -0.02 -0.02 -0.02 -0.02 c0 0.04 0.02 0.06 0.02 0.06 l0.02 0 z M7.46 13.559999999999999 l0.02 -0.04 l0 -0.02 l-0.02 0 c-0.02 0.02 -0.04 0.04 -0.04 0.06 l0.04 0 z M6.08 13.719999999999999 l0.04 -0.06 l-0.04 -0.02 c-0.02 0 -0.02 0.02 -0.02 0.04 s0 0.04 0.02 0.04 z M9.94 13.76 l0.04 -0.06 l-0.02 -0.04 c-0.02 0 -0.02 -0.02 -0.02 -0.02 c-0.02 0 -0.02 0.02 -0.02 0.06 s0 0.06 0.02 0.06 z M4.5 13.719999999999999 l0 -0.02 l-0.02 -0.04 c-0.02 0 -0.02 0.02 -0.02 0.04 z M7.06 13.780000000000001 c0.02 0 0.04 -0.02 0.04 -0.04 s-0.02 -0.04 -0.04 -0.04 s-0.02 0.02 -0.02 0.04 s0 0.04 0.02 0.04 z M6.92 13.82 l0.04 -0.04 c0 -0.02 0 -0.02 -0.02 -0.02 s-0.02 0 -0.02 0.02 l0 0.04 z M7.56 13.940000000000001 c0.02 0 0.04 -0.02 0.04 -0.04 l-0.02 -0.06 l-0.04 -0.02 l-0.02 0.04 l0 0.04 l0.02 0.04 l0.02 0 z M7.68 13.9 c0.02 0 0.04 -0.02 0.04 -0.04 s0 -0.02 -0.02 -0.02 l-0.02 0 l-0.02 0.04 c0 0.02 0.02 0.02 0.02 0.02 z M4.3 14.04 c0.02 0 0.04 -0.02 0.04 -0.04 s-0.02 -0.06 -0.04 -0.06 s-0.04 0.02 -0.04 0.06 l0.02 0.04 l0.02 0 z M7.9 14.059999999999999 c-0.02 0 -0.04 -0.02 -0.04 -0.04 s0.02 -0.04 0.04 -0.04 l0.02 0 l0 0.02 c0 0.04 0 0.06 -0.02 0.06 z M9.96 14.18 l0.02 -0.04 c0.02 -0.04 0.02 -0.08 0.02 -0.1 s0 -0.04 -0.02 -0.04 s-0.02 0.02 -0.02 0.06 l0 0.12 z M4.78 14.36 c0.02 0 0.04 -0.12 0.04 -0.24 l0 -0.02 l-0.02 0.08 z M6.96 14.16 l0.06 -0.06 l-0.08 0.04 c0 0.02 0 0.02 0.02 0.02 z M6.44 14.18 c0.02 0 0.02 -0.02 0.02 -0.04 l0 -0.02 l-0.04 0.02 c0 0.02 0 0.04 0.02 0.04 z M6.78 14.18 l0.04 -0.02 l-0.06 -0.04 l-0.02 0.02 c0 0.02 0.02 0.04 0.04 0.04 z M7.12 14.3 c0.02 0 0.04 -0.04 0.04 -0.08 l0.02 -0.06 c-0.02 0 -0.04 0.02 -0.06 0.06 l-0.02 0.06 z M7.26 14.24 l0.02 -0.04 l-0.04 -0.02 c-0.02 0 -0.02 0 -0.02 0.02 z M6.36 14.3 l0.02 -0.04 l-0.02 -0.04 l0 0.08 z M7.56 14.5 c0 -0.06 0.1 -0.24 0.14 -0.24 l0.04 0.02 l-0.02 0.04 c-0.04 0.06 -0.14 0.18 -0.16 0.18 z M6.78 14.379999999999999 l0.02 -0.04 l-0.02 -0.04 l-0.02 0.04 z M2.52 14.379999999999999 l0.02 -0.02 l-0.02 -0.04 c-0.02 0 -0.04 0.02 -0.04 0.04 z M4.16 14.46 l-0.02 -0.04 c0 -0.02 0.02 -0.04 0.06 -0.04 l0.04 0 z M6.92 14.66 c0.02 0 0.02 -0.04 0.02 -0.06 s0.02 -0.02 0.02 -0.02 l0.02 0 c0.02 0 0.02 0 0.02 -0.04 l0 -0.02 l-0.04 0 l-0.06 0.12 c0 0.02 0 0.02 0.02 0.02 z M7.3 14.58 l-0.04 -0.04 l-0.04 0 l0 0.02 l0.06 0.02 l0.02 0 z M6.62 14.64 c0.02 0 0.02 0 0.02 -0.02 l-0.02 -0.04 l-0.04 0.04 z M7.14 14.74 c0.02 0 0.02 -0.02 0.02 -0.06 c0 -0.02 0 -0.02 -0.02 -0.02 l-0.06 0 l-0.04 -0.02 l-0.04 0.02 l-0.02 0.02 l0.02 -0.02 c0.04 0 0.08 0.02 0.1 0.04 z M7.1 15.120000000000001 c0.02 0 0.06 -0.02 0.1 -0.06 l0.04 -0.08 l0.08 -0.14 c0.04 -0.06 0.08 -0.12 0.08 -0.16 c0 -0.02 -0.02 -0.04 -0.04 -0.04 l-0.06 0.08 z M6.62 14.76 l0.02 -0.02 l-0.02 -0.02 c0 -0.02 -0.02 -0.04 -0.04 -0.04 c0 0 -0.02 0 -0.02 0.02 c0 0.04 0.04 0.06 0.06 0.06 z M3.94 14.8 l0.04 -0.02 l-0.06 -0.04 l0 0.02 c0 0.02 0 0.04 0.02 0.04 z M7.06 14.9 c0 0 0 -0.04 -0.02 -0.06 l-0.02 0 l0.02 0.06 l0.02 0 z M6.74 14.92 l0.02 -0.02 c0.04 -0.02 0.04 -0.04 0.04 -0.06 c-0.02 0 -0.04 0 -0.04 0.04 z M4.74 15.52 l0 -0.02 c0.02 -0.02 0.04 -0.16 0.04 -0.32 c0 -0.14 0 -0.28 -0.02 -0.28 s-0.02 0.02 -0.02 0.04 c0 0.04 0 0.2 -0.02 0.34 c0 0.16 0 0.24 0.02 0.24 z M6.6 15.120000000000001 c0.02 0 0.06 -0.02 0.08 -0.06 l0.02 -0.1 l-0.02 0 s0 0.06 -0.06 0.1 z M6.38 15.04 c0.02 0 0.02 -0.02 0.02 -0.04 l0 -0.02 l-0.04 0.02 c0 0.02 0 0.04 0.02 0.04 z M6.48 15.14 l0.02 -0.02 l-0.02 -0.04 l0 0.06 z M6.24 15.18 l0.02 -0.02 l0.02 -0.04 l0 -0.02 l-0.04 0.04 l0 0.04 z M7.04 15.34 c0.02 0 0.06 -0.04 0.06 -0.06 c0 -0.04 0 -0.08 -0.02 -0.12 c0 -0.02 -0.02 -0.02 -0.02 -0.02 c-0.02 0 -0.02 0.02 -0.04 0.08 l-0.04 0.1 c0 0.02 0.02 0.02 0.06 0.02 z M6.68 15.280000000000001 l0.02 -0.04 c0 -0.02 0 -0.02 -0.02 -0.02 l-0.04 0.02 z M6.82 15.3 c0.02 0 0.04 -0.02 0.06 -0.06 c0 -0.02 -0.02 -0.02 -0.04 -0.02 s-0.04 0.02 -0.04 0.04 z M3.66 15.4 c0.02 0 0.04 -0.02 0.04 -0.04 s-0.04 -0.08 -0.06 -0.08 l0 0.02 l-0.02 0.08 c0 0.02 0 0.02 0.02 0.02 l0.02 0 z M6.94 15.46 c0.02 0 0.04 -0.02 0.04 -0.06 c0 -0.02 0 -0.02 -0.02 -0.02 l-0.02 0 c-0.02 0 -0.02 0.02 -0.02 0.04 s0 0.04 0.02 0.04 z M6.46 15.48 l0 -0.04 c0 -0.04 0 -0.04 -0.02 -0.04 c-0.02 0.02 -0.02 0.04 -0.02 0.06 z M6.66 15.48 c0.02 0 0.02 -0.02 0.02 -0.04 c0 -0.04 -0.02 -0.04 -0.04 -0.04 l0 0.04 z M6.52 15.54 l0.04 -0.04 l-0.02 -0.02 c-0.02 0 -0.04 0.02 -0.04 0.04 c0 0 0 0.02 0.02 0.02 z M6.82 15.76 c0.02 0 0.04 -0.02 0.06 -0.06 s0.04 -0.1 0.04 -0.14 c0 -0.02 -0.02 -0.04 -0.04 -0.04 s-0.02 0 -0.04 0.08 l-0.02 0.06 c-0.02 0.02 -0.02 0.04 -0.02 0.08 z M6.26 15.86 c0.02 0 0.04 -0.02 0.04 -0.04 s0 -0.04 0.04 -0.06 c0.02 -0.02 0.04 -0.08 0.04 -0.12 l0.02 -0.1 c-0.12 0.12 -0.16 0.2 -0.16 0.28 c0 0.02 0 0.04 0.02 0.04 z M6.64 15.6 l0 -0.02 c0 -0.02 0 -0.04 -0.02 -0.04 s-0.02 0.02 -0.02 0.04 z M4.74 15.74 c0.02 -0.02 0.02 -0.04 0.02 -0.08 l-0.04 -0.06 c-0.02 0 -0.02 0.02 -0.02 0.06 l0.02 0.06 c0 0.02 0 0.02 0.02 0.02 z M3.34 15.96 c0.02 0 0.06 -0.04 0.1 -0.1 l0.06 -0.14 c0 -0.02 -0.02 -0.04 -0.04 -0.04 c0 0 -0.04 0.04 -0.04 0.1 z M3.08 15.96 c0.02 0 0.02 -0.02 0.02 -0.04 c0 0 0 -0.02 -0.02 -0.02 l-0.04 0.02 z M6.2 15.98 l0.04 -0.06 l-0.02 -0.02 l-0.02 0.02 c-0.02 0 -0.02 0.02 -0.02 0.04 s0 0.02 0.02 0.02 z M6.36 16.04 l0.02 -0.08 c-0.02 0 -0.02 0 -0.02 0.02 c-0.02 0 -0.04 0.02 -0.04 0.04 s0.02 0.02 0.04 0.02 z M3.26 16.22 c0.04 -0.1 0.08 -0.16 0.08 -0.2 l0 -0.02 c-0.02 0 -0.04 0.06 -0.06 0.12 z M6.24 16.06 l0.02 -0.02 l-0.02 -0.02 l0.02 0 l-0.02 -0.02 l0 0.06 z M6.18 16.28 c0.02 0 0.04 -0.02 0.06 -0.06 l0.02 -0.06 l-0.04 0.04 c-0.02 0.02 -0.04 0.04 -0.04 0.06 l0 0.02 z M6.56 16.32 l-0.02 0 l0 -0.02 c0 -0.02 0.04 -0.1 0.08 -0.1 c0.02 0 0.02 0 0.02 0.02 s0 0.04 -0.04 0.08 z M10.12 16.44 l-0.02 -0.04 c0 -0.02 0 -0.02 0.02 -0.02 s0.04 0 0.04 0.02 z M2.88 16.56 l0.02 -0.02 l-0.04 -0.04 l-0.02 0.02 c0 0.02 0.02 0.04 0.04 0.04 z M3.58 16.66 l-0.02 0 l0 -0.06 l0.02 0 l0 0.06 z M9.74 16.7 l0.04 -0.02 l-0.06 -0.02 c0 0.02 0 0.04 0.02 0.04 z M9.92 16.740000000000002 l0.02 -0.04 c0 -0.02 0 -0.02 -0.02 -0.02 l-0.04 0.02 z M6.26 16.98 l0.04 -0.06 l-0.06 -0.08 l0 0.14 l0.02 0 z M14.343 24.98 c-0.4 0 -0.68 -0.26 -0.84 -0.62 c0.2 -0.14 0.48 -0.22 0.98 -0.96 c0.18 -0.18 0.3 -0.32 0.34 -0.32 l0 0.04 c0 0.02 0 0.04 0.02 0.04 s0.04 -0.02 0.04 -0.04 l-0.02 -0.12 c0 -0.14 0.08 -0.18 0.26 -0.44 c0 -0.08 0.38 -0.64 0.52 -0.72 c0.04 0 0.08 -0.02 0.1 -0.04 c0 -0.02 -0.02 -0.02 -0.04 -0.02 l-0.06 0.02 c0.06 -0.3 0.24 -0.46 0.3 -0.46 c0.02 0 0.04 -0.04 0.04 -0.08 l0 -0.04 c0 -0.24 0.16 -0.22 0.24 -0.42 l0.04 -0.16 c-0.04 0 -0.06 -0.02 -0.06 -0.04 l0.04 -0.02 l0.02 0 c0.12 0 0.24 -0.26 0.24 -0.34 l0 -0.02 l-0.04 0.02 c-0.04 -0.02 -0.04 0 -0.06 -0.04 c0 -0.04 0.14 -0.06 0.14 -0.12 l-0.02 -0.06 c0 -0.14 0.16 -0.42 0.24 -0.42 l0.06 0.02 c-0.08 -0.08 -0.12 -0.08 -0.12 -0.12 c0.04 -0.04 0.08 -0.06 0.08 -0.18 s0.2 -0.32 0.2 -0.42 c0.04 -0.06 0.1 -0.02 0.1 -0.2 l-0.02 -0.08 c0 -0.06 0.16 -0.02 0.16 -0.08 l-0.06 -0.14 c0 -0.04 0.04 -0.08 0.08 -0.08 l0.1 0.06 c-0.02 -0.1 -0.06 -0.12 -0.06 -0.18 s0.14 -0.16 0.14 -0.22 l-0.06 -0.06 c0 -0.06 0.12 -0.12 0.14 -0.4 l0.04 0.02 c0.04 0 0.04 -0.04 0.04 -0.1 l-0.02 -0.18 l0.02 -0.02 c0.02 0 0.02 -0.02 0.02 -0.06 l-0.02 -0.12 l0.02 -0.04 l0.06 0.02 c0.08 0 0.12 -0.1 0.12 -0.18 s-0.02 -0.1 -0.08 -0.18 l0.06 0.02 c0.06 0 0.12 -0.14 0.12 -0.26 c0 -0.1 0 -0.12 -0.06 -0.18 l0.06 0 c0.06 0 0.06 -0.04 0.12 -0.12 l-0.08 0.04 l0.02 -0.04 c0.02 -0.02 0.04 -0.06 0.04 -0.1 l-0.04 -0.14 l0.02 -0.02 l0.04 0 c0.02 0 0.04 -0.04 0.04 -0.06 l0 -0.08 l-0.06 0 l0.04 -0.14 l0.08 0.02 l0.02 -0.04 l-0.04 -0.14 c0.12 -0.1 0.1 -0.1 0.14 -0.34 c0 -0.06 -0.04 -0.04 -0.08 -0.08 l0.08 -0.04 l-0.04 -0.04 c0.06 -0.02 0.08 -0.06 0.08 -0.12 s-0.02 -0.08 -0.06 -0.08 l-0.02 0.02 l-0.02 -0.02 c0 -0.06 0.08 -0.1 0.08 -0.24 l0.06 -0.24 c0 -0.06 -0.14 -0.08 -0.14 -0.1 c0.08 -0.08 0.14 -0.08 0.14 -0.12 c-0.02 -0.06 -0.02 -0.08 -0.04 -0.08 c-0.12 0.08 -0.14 0.1 -0.14 0.2 c0 0.04 0 0.08 0.04 0.08 l0.04 -0.02 c0.02 0 0.02 0 0.02 0.02 c0 0.12 -0.14 0.32 -0.4 0.6 l-0.02 -0.02 l0.02 -0.08 c-0.04 0 -0.28 0.26 -0.28 0.32 l0.02 0.04 c-0.04 0.06 -0.02 0.04 -0.06 0.06 l0.02 0.02 l-0.04 0.04 l-0.04 -0.02 c-0.04 0 -0.08 0.04 -0.1 0.08 l0.02 0.04 l0.06 -0.02 c0.04 0.02 0.04 0 0.06 0.04 c-0.12 0.06 -0.24 0.1 -0.24 0.2 l0.02 0.04 c0 0.06 -0.1 0.08 -0.14 0.2 c-0.02 0.16 -0.26 0.18 -0.26 0.22 c0 0.02 0.02 0.02 0.02 0.06 c0 0.06 -0.1 0.16 -0.16 0.16 l-0.04 0 l-0.02 0.02 l0.04 0.1 l-0.12 -0.06 c-0.02 0 -0.02 0.04 -0.02 0.12 c0 0.12 -0.04 0.14 -0.06 0.2 l0.02 0.08 l-0.06 -0.02 c-0.08 0 -0.04 0.08 -0.08 0.08 l-0.04 -0.02 c-0.1 0 -0.06 0.12 -0.22 0.14 l0.08 0.06 c-0.1 0.1 -0.16 0.1 -0.16 0.14 l0 0.02 c0.06 0 0.34 -0.28 0.4 -0.28 c0.02 0 0.04 0.02 0.06 0.06 c0 0.06 -0.06 0.08 -0.14 0.08 l0.04 0.06 c0 0.1 -0.5 0.52 -0.66 0.52 c-0.04 0 -0.08 0.04 -0.08 0.06 c-0.02 0.06 -0.06 0.08 -0.16 0.08 l-0.48 -0.02 c-0.08 0 -0.08 -0.06 -0.28 -0.14 c-0.3 -0.12 -0.4 -0.28 -0.84 -0.62 c-0.18 -0.16 -0.26 -0.42 -0.3 -0.42 c-0.02 0 -0.06 -0.28 -0.06 -0.48 l0.02 -0.14 c0.04 -0.02 0.06 -0.06 0.06 -0.08 l-0.04 -0.04 l-0.04 0.04 c0.04 -0.1 0.02 -0.06 0.04 -0.16 l0 -0.06 c0 -0.06 0.04 -0.08 0.1 -0.18 c-0.02 -0.02 -0.04 0 -0.04 -0.1 c0 -0.16 0.08 -0.54 0.14 -0.58 c0.02 -0.02 0.04 -0.06 0.04 -0.1 l-0.02 -0.12 c0 -0.1 0.04 -0.1 0.12 -0.16 c-0.06 -0.02 -0.1 0 -0.1 -0.02 c0.08 -0.08 0.12 -0.12 0.12 -0.14 c-0.04 -0.04 -0.06 -0.04 -0.06 -0.06 c0.06 -0.1 0.1 -0.14 0.1 -0.22 l0 -0.06 c0 -0.16 0.08 -0.34 0.14 -0.64 c0.04 -0.24 0.08 -0.16 0.12 -0.38 c0.04 -0.2 0.18 -0.32 0.18 -0.38 l-0.04 0.02 c-0.02 0 -0.04 0 -0.04 -0.02 c0 -0.08 0.12 -0.08 0.12 -0.26 c0 -0.1 0.1 -0.4 0.3 -0.94 c0.08 -0.16 0.16 -0.2 0.34 -0.22 c0.26 0 0.62 0.22 0.96 0.62 c0.06 0.06 0.1 0.2 0.1 0.32 c0 0.26 -0.2 0.42 -0.2 0.48 l0 0.04 c0 0.22 -0.32 1 -0.32 1.16 l0.02 0.06 l-0.02 0 c-0.04 0 -0.24 0.6 -0.32 1.04 l-0.08 0.34 c-0.06 0.12 -0.2 0.82 -0.2 0.94 l0 0.02 c0.04 0 0.4 -0.36 0.44 -0.36 l0.02 0.02 c0.06 -0.16 0.04 -0.22 0.16 -0.22 c0.06 0 0.1 0 0.1 -0.04 l-0.04 -0.14 c0.06 -0.04 0.08 -0.02 0.26 -0.2 c0.08 -0.08 0.14 -0.16 0.18 -0.16 l0.02 0 c0.06 0 0.14 -0.3 0.3 -0.38 c0.06 -0.04 0.12 -0.32 0.16 -0.32 c0.04 0.02 0.04 0.08 0.04 0.12 l-0.02 0.04 c0.1 -0.08 0.14 -0.1 0.14 -0.14 l-0.06 -0.06 c0 -0.04 0.08 -0.06 0.2 -0.14 c-0.08 -0.04 -0.14 -0.04 -0.14 -0.08 s0.12 -0.08 0.28 -0.34 c0.12 -0.36 0.66 -0.9 0.66 -0.96 c0 -0.04 0.3 -0.42 0.34 -0.6 c0.04 -0.16 0.24 -0.24 0.44 -0.24 c0.26 0 0.44 0.18 0.7 0.34 c0.1 0.04 0.16 0.08 0.16 0.1 l0 0.02 c0.08 0.16 0.18 0.26 0.18 0.36 c0 0.04 0.02 0.1 0.06 0.14 c0.06 0.06 0.06 0.16 0.12 0.36 c0.04 0.06 0.08 0.46 0.16 1.06 c-0.02 0.04 -0.04 -0.04 -0.08 0.28 c0 0.42 -0.04 0.32 -0.06 0.54 c-0.14 0.98 -0.16 0.84 -0.24 1.06 c-0.08 0.2 -0.14 0.4 -0.16 0.6 c-0.24 0.78 -0.34 1.64 -0.68 2.4 c0 0.08 -0.08 0.14 -0.12 0.28 l-0.16 0.48 c-1.8 3.94 -3.2 5.16 -4.06 5.16 z M36.009 18.26 l-0.02 -0.02 l-0.02 0.02 l-0.02 -0.1 c0 -0.02 -0.02 -0.04 -0.06 -0.04 l-0.04 0 l0.02 0.02 l0.02 0.06 l0 0.02 l-0.06 0.02 c-0.04 0 -0.08 -0.02 -0.08 -0.04 s-0.04 -0.04 -0.1 -0.06 c-0.04 -0.02 -0.1 -0.06 -0.12 -0.1 c-0.04 -0.04 -0.1 -0.06 -0.22 -0.08 c-0.12 0 -0.18 -0.04 -0.24 -0.1 c-0.06 -0.04 -0.08 -0.08 -0.08 -0.1 l-0.1 -0.08 c-0.06 -0.06 -0.1 -0.12 -0.1 -0.14 c0 -0.04 0 -0.06 -0.02 -0.06 s-0.02 -0.16 -0.02 -0.32 c0 -0.18 0 -0.4 -0.02 -0.5 l-0.02 -0.32 c0 -0.1 0 -0.18 -0.02 -0.2 l0 -0.02 c0.02 0 0.04 -0.08 0.04 -0.14 l-0.04 -0.16 l0.02 -0.02 c0.02 0 0.02 -0.04 0.02 -0.1 l0 -0.36 c0 -0.08 -0.02 -0.1 -0.04 -0.1 l-0.04 0.02 c0 -0.02 0 -0.02 0.04 -0.06 s0.06 -0.1 0.06 -0.3 c0 -0.12 0 -0.2 -0.02 -0.2 l-0.04 0.04 c-0.02 0 -0.04 -0.04 -0.04 -0.1 s0.02 -0.12 0.04 -0.12 c0.04 -0.02 0.04 -0.08 0.04 -0.14 s0 -0.12 -0.04 -0.12 l-0.02 0 l0.02 -0.04 c0.02 -0.04 0.04 -0.1 0.04 -0.14 l0.02 -0.16 c0 -0.14 -0.02 -0.2 -0.04 -0.2 l-0.02 -0.04 c0 -0.02 0 -0.02 0.02 -0.02 s0.04 -0.04 0.04 -0.1 l0.02 -0.22 c0 -0.02 0 -0.02 -0.02 -0.02 l-0.04 0.02 l0.02 -0.02 c0.02 -0.04 0.02 -0.08 0.02 -0.12 c-0.02 -0.02 -0.02 -0.22 -0.02 -0.4 c-0.02 -0.18 -0.02 -0.54 -0.02 -0.8 l0 -0.46 c0.12 0 0.18 0 0.3 -0.04 c0.08 0 0.16 0.02 0.2 0.04 c0.06 0.04 0.14 0.06 0.18 0.06 l0.06 0 c0 0.02 0.02 0.02 0.02 0.02 l0.02 0 c0.04 0 0.06 0.02 0.06 0.04 c0 0.04 0.18 0.16 0.24 0.16 l0.08 0.02 c0 0.02 0.02 0.04 0.06 0.04 c0.06 0.02 0.08 0.04 0.08 0.08 c0 0.02 0.02 0.06 0.06 0.08 l0.04 0.1 c0 0.04 0.02 0.1 0.06 0.16 c0.06 0.08 0.06 0.16 0.06 0.66 l0.02 0.62 l0.02 0.02 c0.02 0 0.04 -0.04 0.12 -0.18 l0.12 -0.24 c0.02 -0.06 0.08 -0.16 0.12 -0.2 l0.02 -0.06 l0 -0.08 c0 -0.12 0.08 -0.26 0.2 -0.3 c0.04 -0.02 0.04 -0.06 0.04 -0.08 c-0.02 -0.02 -0.02 -0.04 -0.04 -0.04 l-0.02 0 s-0.02 0 -0.02 -0.02 l0.04 -0.02 c0.08 0 0.16 -0.06 0.16 -0.14 s0.04 -0.16 0.06 -0.16 s0.06 -0.02 0.08 -0.06 c0 -0.04 0.04 -0.08 0.06 -0.08 s0.02 -0.02 0.02 -0.02 l0 -0.02 l0.04 -0.08 c0.02 -0.04 0.04 -0.1 0.06 -0.1 c0 -0.02 0.02 -0.02 0.02 -0.02 c0.02 0 0.06 -0.02 0.08 -0.06 l0.08 -0.04 c0.04 0 0.08 0 0.08 -0.04 c0.04 -0.04 0.36 -0.12 0.64 -0.12 c0.2 0 0.54 0.04 0.54 0.08 c0 0 0.02 0.02 0.06 0.02 s0.1 0.02 0.14 0.04 c0.16 0.1 0.24 0.14 0.28 0.14 l0.06 0 l0 0.04 c0 0.02 0.02 0.04 0.1 0.04 c0.12 0 0.46 0.22 0.46 0.28 l0.02 0.04 l0.02 0 c0.04 0 0.08 0.04 0.1 0.08 l0.16 0.22 c0.08 0.1 0.1 0.18 0.1 0.22 l-0.02 0.04 l0.04 0 c0.02 0 0.02 0 0.02 0.02 l0 0.06 c0 0.02 0 0.02 0.02 0.02 l0.04 0 c0.02 0 0.04 0.02 0.06 0.06 c0.04 0.04 0.04 0.06 0.04 0.1 l-0.02 0.06 l-0.02 0.04 c0 0.02 0 0.02 0.02 0.02 s0.04 0.04 0.04 0.1 c0 0.04 0.02 0.14 0.06 0.18 l0.04 0.08 l-0.02 0.06 l0.04 0.14 l-0.02 0.04 c-0.02 0 -0.02 0.02 -0.02 0.04 l0.02 0.04 c0.02 0.04 0.02 0.1 0.02 0.16 c0 0.08 0 0.16 -0.04 0.2 l0 0.02 l0.02 -0.02 l0.02 0.24 c0 0.2 -0.02 0.42 -0.04 0.44 s-0.02 0.06 -0.02 0.1 c0 0.02 0 0.04 0.02 0.04 l0.06 0 l-0.02 0.06 l-0.04 0.02 l0 -0.04 l-0.02 0.02 l0.04 0.08 l-0.02 0.04 c-0.02 0.02 -0.02 0.06 -0.02 0.08 l0 0.04 l0.04 0 l0 0.02 c0 0.02 0 0.04 -0.02 0.06 c-0.02 0 -0.04 0.04 -0.04 0.08 l-0.02 0.04 l0.02 0.02 c0.02 0 0.02 0.04 0.02 0.08 c0 0.1 -0.02 0.22 -0.04 0.26 l-0.02 0.06 l0.06 0.14 l-0.04 0.08 l-0.02 0 l0.02 0.02 l0.04 0.1 l-0.06 0.12 l0.02 0.06 l0.02 0.22 c0 0.28 -0.04 0.74 -0.08 0.76 c-0.02 0 -0.02 0.02 -0.02 0.02 l0 0.02 l-0.04 0.04 l0 -0.04 l-0.02 -0.02 l-0.12 0.06 l-0.12 -0.04 l-0.02 0.02 l0.02 0.02 c0.02 0.02 0.02 0.06 0.02 0.06 l-0.02 0 l0 -0.02 l-0.04 0 l-0.02 0.04 l0 0.02 l-0.02 0 c-0.04 0 -0.04 -0.02 -0.04 -0.04 s-0.04 -0.04 -0.06 -0.04 l-0.18 -0.02 l0.02 0.02 c0 0.04 -0.04 0.12 -0.1 0.12 c-0.02 0 -0.02 -0.02 -0.02 -0.04 l0.04 -0.08 l0.02 -0.02 l-0.16 0.02 c-0.02 0 -0.04 -0.02 -0.04 -0.06 l0 -0.04 l-0.02 0.02 c-0.02 0.02 -0.06 0.02 -0.1 0.02 c-0.08 0 -0.18 -0.02 -0.2 -0.08 c-0.02 -0.04 -0.06 -0.1 -0.12 -0.16 s-0.12 -0.14 -0.12 -0.16 l0 -0.02 l-0.02 -0.04 c-0.02 -0.02 -0.02 -0.08 -0.02 -0.24 l0.02 -0.82 c0.02 -0.36 0.06 -0.66 0.08 -0.68 l0.02 -0.04 l-0.04 -0.14 c0 -0.08 0.04 -0.16 0.06 -0.16 c0.02 -0.02 0.04 -0.04 0.04 -0.06 s0 -0.02 -0.02 -0.02 l-0.02 0 c-0.02 0 -0.02 -0.02 -0.02 -0.04 l0.02 -0.04 l-0.02 0 l-0.04 -0.02 c0 -0.02 0.02 -0.06 0.06 -0.08 l0.02 -0.08 l0 -0.18 l0.04 -0.94 c0 -0.16 -0.02 -0.24 -0.06 -0.38 c-0.06 -0.26 -0.12 -0.38 -0.18 -0.4 l-0.04 0 c-0.12 0 -0.36 0.2 -0.42 0.34 c0 0.06 -0.02 0.1 -0.04 0.1 s-0.04 0.02 -0.04 0.06 c0 0.02 -0.02 0.06 -0.04 0.06 l-0.02 0.04 l0 0.02 c0 0.04 -0.02 0.08 -0.04 0.1 l-0.06 0.08 c0 -0.02 0 -0.02 -0.02 -0.02 s-0.06 0.06 -0.12 0.18 l-0.08 0.18 l0 0.04 c0 0.04 -0.02 0.06 -0.06 0.08 s-0.06 0.06 -0.06 0.08 l0 0.02 l0.06 -0.08 l0 0.04 c-0.02 0.02 -0.04 0.04 -0.06 0.04 s-0.06 0.06 -0.1 0.16 c-0.06 0.1 -0.1 0.14 -0.12 0.14 l-0.04 -0.02 l0 0.04 c0 0.08 -0.06 0.2 -0.1 0.2 l-0.02 0 l0.02 0.02 l-0.08 0.24 l-0.12 0.24 c0 0.02 0 0.02 -0.02 0.02 s-0.06 0.08 -0.08 0.18 c-0.06 0.16 -0.08 0.2 -0.16 0.34 l-0.06 0.18 c-0.02 0.06 -0.04 0.12 -0.06 0.12 l-0.02 0.08 c0 0.02 -0.02 0.06 -0.04 0.06 c-0.1 0 -0.12 0.02 -0.12 0.06 s0 0.06 0.02 0.06 l0.06 -0.04 l0.04 -0.02 l0 0.04 l-0.02 0.06 c-0.02 0 -0.06 0.12 -0.1 0.26 l-0.1 0.32 c-0.02 0.04 -0.06 0.24 -0.06 0.32 l-0.08 0.5 l0.04 0.22 l-0.04 0.14 c-0.04 0.12 -0.04 0.1 -0.04 0.14 c0 0.02 -0.06 0.04 -0.12 0.04 c-0.16 0 -0.3 0.08 -0.3 0.12 l0 0.04 c0 0.02 0 0.04 -0.02 0.04 z M37.068999999999996 11.94 c0 0 0.02 -0.04 0.06 -0.06 l0.06 -0.08 c0 0.02 -0.02 0.04 -0.04 0.06 c-0.02 0.04 -0.06 0.06 -0.08 0.08 z M37.068999999999996 12.04 c-0.02 0 -0.02 0 -0.02 -0.04 l0 -0.02 l0.02 0 l0 0.06 z M37.708999999999996 13.16 l0.02 -0.06 l-0.02 0 c-0.02 0 -0.02 0.04 -0.02 0.04 c0 0.02 0 0.02 0.02 0.02 z M37.549 13.4 l0.04 -0.06 l-0.04 0 l-0.04 0.04 c0 0.02 0.02 0.02 0.04 0.02 z M38.129 13.52 l-0.02 -0.02 l0 -0.02 c0 -0.02 0.02 -0.02 0.04 -0.02 l0 0.02 z M40.489 13.46 l0.04 -0.04 c0 -0.02 0 -0.02 -0.02 -0.02 l-0.04 0.02 z M40.509 14.02 l0.02 -0.04 l-0.02 -0.04 l-0.02 0.04 z M37.329 14.719999999999999 l0.02 -0.02 l-0.02 -0.02 c0 -0.02 0 -0.04 0.02 -0.06 s0.04 -0.04 0.04 -0.06 c-0.02 0 -0.04 0.02 -0.06 0.04 l-0.06 0.08 z M37.108999999999995 15.18 l-0.02 -0.04 l-0.04 0.02 c0 0.02 0.02 0.02 0.04 0.02 l0.02 0 z M37.009 15.379999999999999 c0 -0.02 0 -0.04 -0.02 -0.04 l-0.04 -0.02 l0 0.02 c0 0.02 0.02 0.04 0.04 0.04 l0.02 0 z M40.409 15.9 l0 -0.12 c0 -0.08 0 -0.12 -0.02 -0.12 l-0.02 0.12 c0 0.08 0.02 0.12 0.04 0.12 z M40.489 16.02 l0 -0.06 c-0.02 0 -0.02 0.02 -0.02 0.02 l0 0.04 l0.02 0 z M39.829 17.54 c-0.02 0 -0.04 0 -0.04 -0.02 l0.06 -0.04 l0.04 0.02 c0 0.02 -0.04 0.04 -0.06 0.04 z M47.172 23.36 c-0.02 0 -0.02 -0.02 -0.04 -0.04 l0.02 0 c0 -0.02 -0.04 -0.02 -0.1 -0.02 c-0.04 0 -0.08 0 -0.08 -0.02 l-0.1 -0.04 c-0.06 -0.02 -0.1 -0.04 -0.1 -0.06 c0 -0.04 0 -0.04 -0.02 -0.04 l-0.18 0.1 l0.02 -0.08 c0 -0.02 0 -0.04 -0.02 -0.04 l-0.02 0.04 l-0.02 -0.04 c0 -0.04 -0.02 -0.04 -0.06 -0.04 l-0.04 0.02 l0 -0.02 l0.04 -0.08 l-0.06 0.02 c-0.06 0 -0.1 0 -0.12 -0.02 c-0.02 -0.04 -0.06 -0.04 -0.1 -0.04 c-0.02 0 -0.06 -0.02 -0.06 -0.04 c-0.02 -0.02 -0.04 -0.04 -0.06 -0.04 l-0.02 0 c-0.04 0 -0.08 -0.04 -0.08 -0.1 l0.02 -0.06 c0.06 -0.12 0.1 -0.3 0.12 -0.5 c0 -0.18 0.02 -0.24 0.04 -0.28 l0.02 -0.02 l-0.02 -0.02 c-0.02 -0.02 -0.02 -0.06 -0.02 -0.1 l0 -0.36 c0 -0.36 0 -0.36 0.02 -0.44 c0 -0.04 0 -0.04 -0.04 -0.04 l-0.02 0 l0.02 -0.04 c0.02 -0.02 0.04 -0.24 0.04 -0.38 c0 -0.06 0 -0.1 -0.02 -0.1 l0.02 -0.38 l-0.02 -0.28 c0.02 0 0.02 -0.3 0.02 -0.6 l-0.02 -0.64 l-0.02 -0.04 l0.02 -0.02 c0.02 0 0.02 -0.16 0.02 -0.34 l-0.02 -0.72 c0 -0.24 0 -0.38 -0.02 -0.38 s-0.02 0.02 -0.02 0.04 l-0.02 0.04 l-0.08 -0.02 l-0.24 0.06 c-0.02 0 -0.02 0 -0.02 -0.02 l-0.04 -0.02 l0 0.04 c0 0.02 -0.02 0.04 -0.06 0.04 s-0.06 -0.02 -0.06 -0.02 c0 -0.02 -0.04 -0.04 -0.12 -0.04 l-0.08 0 c-0.06 0 -0.12 -0.02 -0.22 -0.08 l-0.14 -0.08 c-0.02 -0.02 -0.08 -0.04 -0.14 -0.06 c-0.08 -0.04 -0.1 -0.06 -0.1 -0.1 c0 -0.08 -0.18 -0.28 -0.32 -0.34 c-0.06 -0.04 -0.08 -0.06 -0.08 -0.12 l0 -0.04 l-0.04 -0.08 c-0.02 -0.04 -0.02 -0.06 -0.02 -0.1 c0 -0.02 0 -0.06 0.02 -0.08 l0.08 -0.08 c0.02 -0.06 0.08 -0.06 0.26 -0.06 c0.26 -0.02 0.3 -0.02 0.46 -0.08 l0.08 -0.04 l0.08 0.04 l0.12 -0.04 l0.08 -0.02 c0.08 -0.02 0.18 -0.06 0.18 -0.08 s0.02 -0.02 0.04 -0.02 l0.22 -0.02 c0.18 -0.06 0.2 -0.06 0.2 -0.14 c0 -0.04 0 -0.32 0.02 -0.6 c0.02 -0.5 0.02 -0.76 0.06 -1.32 l0.02 -0.56 c0.02 -0.18 0.04 -0.36 0.06 -0.42 l0.06 -0.08 c0.02 0 0.04 0.02 0.04 0.06 l0.02 0.04 c0.02 0 0.04 -0.02 0.06 -0.04 l0 -0.02 c0 -0.04 -0.04 -0.06 -0.08 -0.06 l-0.04 0 c-0.04 0 -0.04 0 -0.04 -0.02 l0.02 -0.1 c0.14 -0.54 0.28 -0.92 0.36 -0.96 l0.1 -0.16 c0.04 -0.08 0.1 -0.16 0.12 -0.18 c0.04 -0.02 0.06 -0.06 0.06 -0.1 c0 -0.02 0.02 -0.06 0.04 -0.06 c0.04 -0.02 0.12 -0.1 0.2 -0.2 c0.1 -0.1 0.2 -0.22 0.26 -0.26 s0.1 -0.08 0.1 -0.1 l-0.02 -0.02 l0.04 0 c0.06 0 0.2 -0.04 0.2 -0.08 c0 -0.02 0.02 -0.02 0.06 -0.02 c0.02 0 0.02 -0.02 0.02 -0.02 c0 -0.02 0.02 -0.02 0.06 -0.02 l0.04 0.02 c0.02 0 0.02 -0.02 0.02 -0.06 l-0.02 -0.04 l0.02 -0.02 l0.02 0.02 l0.04 0.02 c0.02 -0.04 0.18 -0.12 0.24 -0.12 c0 0 0 0.02 -0.04 0.06 l-0.08 0.06 l0.2 -0.04 c0.04 0 0.06 -0.02 0.06 -0.02 c0 -0.02 -0.02 -0.04 -0.04 -0.04 l-0.02 -0.02 l0.04 0 c0.06 0 0.08 0.02 0.08 0.04 s0.02 0.02 0.04 0.02 l0.04 0 c0.06 0 0.08 0 0.12 0.04 l0.08 0.06 c0.06 0 0.24 0.1 0.26 0.14 c0 0.02 0.04 0.02 0.08 0.02 c0.02 0 0.06 0.04 0.08 0.08 c0.04 0.08 0.18 0.22 0.24 0.24 c0.04 0.02 0.06 0.04 0.06 0.08 c0 0.02 0.02 0.06 0.06 0.1 c0.02 0.02 0.06 0.1 0.06 0.2 l0.04 0.18 c0.02 0.04 0.04 0.2 0.04 0.28 l0 0.06 c-0.02 0 -0.04 0 -0.04 -0.02 s-0.02 -0.02 -0.04 -0.02 s-0.04 -0.02 -0.06 -0.04 l0.02 0.14 l-0.04 0.04 l-0.06 0.02 l-0.02 -0.04 l-0.12 0.02 c-0.04 0 -0.06 -0.02 -0.06 -0.04 c0 -0.06 -0.1 -0.1 -0.16 -0.1 l-0.04 0.02 l0.02 -0.04 c0 -0.02 -0.06 -0.04 -0.14 -0.04 c-0.04 0 -0.06 -0.02 -0.06 -0.04 c0 -0.04 -0.02 -0.04 -0.04 -0.04 c0 0 -0.02 0 -0.04 0.04 l-0.16 0.1 c-0.3 0.14 -0.64 0.46 -0.8 0.76 c-0.02 0.06 -0.06 0.12 -0.08 0.12 l0 0.06 c0 0.04 0 0.04 -0.02 0.04 l-0.02 0 l-0.02 0.04 c0 0.04 0 0.08 -0.02 0.08 l-0.06 0.16 c0.02 0 0.02 0.04 0.02 0.08 l0 0.04 l0.02 0.06 l0.02 0.04 l-0.04 0.02 c-0.02 0.02 -0.04 0.04 -0.04 0.06 c0 0.06 -0.04 0.2 -0.06 0.24 c-0.02 0.02 -0.02 0.06 -0.02 0.08 c0 0.14 -0.02 0.28 -0.04 0.28 l-0.02 0 c-0.04 0 -0.08 0.04 -0.08 0.06 l0.04 0.06 l0 -0.02 c0 -0.04 0.02 -0.06 0.04 -0.06 l0.02 0.04 l0.02 0.06 l-0.04 0.4 c0 0.04 0 0.04 0.02 0.04 c0.04 0 0.04 0.02 0.04 0.06 c0 0.02 0 0.06 -0.02 0.08 s-0.06 0.08 -0.06 0.14 l-0.02 0.1 c0 0.02 0.02 0.02 0.04 0.02 s0.06 0.02 0.06 0.04 l-0.02 0.04 l-0.08 0 l-0.06 0.02 c0.06 0.02 0.08 0.02 0.14 0.02 c0 0 0.02 0.04 0.02 0.1 c0 0.04 -0.02 0.06 -0.02 0.06 l-0.04 -0.02 s-0.02 0.08 -0.02 0.22 c0 0.1 0 0.12 0.02 0.12 l0.02 0 c0.02 -0.02 0.08 -0.02 0.14 -0.02 c0.04 -0.02 0.1 -0.02 0.1 -0.04 l0.1 0 l0.06 0.02 l0.02 -0.02 c0 -0.02 0.02 -0.04 0.04 -0.04 c0.04 0 0.08 0 0.12 -0.02 c0.02 -0.02 0.1 -0.04 0.16 -0.04 s0.12 -0.02 0.14 -0.04 l0.14 -0.02 c0.06 0 0.12 0 0.14 -0.02 s0.1 -0.04 0.16 -0.04 c0.08 0 0.2 -0.02 0.28 -0.04 l0.32 -0.06 c0.1 0 0.18 0 0.18 -0.02 l0.04 0.02 l0.02 0.04 l0.04 -0.02 c0.06 -0.02 0.14 -0.04 0.24 -0.04 c0.04 0 0.08 -0.02 0.08 -0.04 l0.02 -0.02 c0.02 0 0.04 0.02 0.04 0.04 c0 0.04 0.02 0.04 0.08 0.04 l0.06 0 c0.08 0 0.16 0.02 0.3 0.06 c0.3 0.1 0.42 0.16 0.62 0.38 c0.1 0.08 0.18 0.16 0.22 0.16 l0.04 0.02 l-0.04 0.04 c-0.02 0.02 -0.04 0.02 -0.04 0.04 l0.08 -0.02 l0.04 0.02 l-0.04 0.06 c0 0.02 0.02 0.02 0.06 0.02 l0.04 0 l-0.06 0.04 c0 0.02 0 0.02 0.04 0.02 s0.06 0 0.06 0.02 s-0.02 0.02 -0.04 0.02 l-0.02 0 c-0.04 0 -0.06 0.02 -0.06 0.04 l0.02 0.04 c0.02 0.02 0.04 0.04 0.04 0.08 l-0.02 0.04 l-0.04 0 l-0.04 0.02 l-0.02 0.02 l0.02 0.02 l0.06 -0.02 l0.1 -0.02 c0 0.04 -0.04 0.06 -0.08 0.06 l-0.12 0.06 l-0.08 -0.04 l-0.06 0.04 l-0.1 -0.02 c-0.08 -0.02 -0.22 -0.04 -0.36 -0.04 c-0.12 -0.02 -0.24 -0.02 -0.26 -0.04 l-0.02 0 l0.02 0.08 l-0.02 0 c0 -0.02 -0.06 -0.04 -0.1 -0.04 s-0.08 0.02 -0.08 0.04 c0 0.04 -0.02 0.04 -0.3 0.06 c-0.1 0.02 -0.2 0.02 -0.22 0.04 l-0.36 0.06 l-0.04 -0.04 c0 -0.02 -0.04 -0.04 -0.06 -0.04 l-0.02 0 l0.04 0.06 c0 0.02 -0.02 0.02 -0.08 0.04 c-0.02 0 -0.06 0 -0.08 0.02 l-0.02 0 l-0.02 -0.02 c0 -0.02 0.04 -0.04 0.06 -0.04 l0.04 -0.02 l-0.02 -0.02 l-0.06 -0.02 c-0.04 0 -0.08 0.02 -0.08 0.06 l0 0.04 c0 0.02 -0.02 0.04 -0.04 0.04 s-0.08 0 -0.1 0.02 c-0.04 0 -0.04 0 -0.04 -0.04 l0 -0.02 c0 -0.02 -0.02 -0.04 -0.04 -0.04 c-0.04 0 -0.06 0.02 -0.06 0.04 l0.02 0.06 s-0.02 0.02 -0.06 0.02 s-0.12 0.02 -0.16 0.06 l-0.08 0.02 c-0.02 0 -0.02 0 -0.04 -0.04 l-0.04 -0.04 l0 0.04 c0 0.04 -0.08 0.08 -0.2 0.1 c-0.04 0 -0.08 0.02 -0.1 0.04 c-0.02 0.04 -0.04 0.04 -0.06 0.04 l0 -0.04 l-0.04 0.04 l-0.12 0.02 c-0.02 0 -0.06 0 -0.08 0.02 l-0.04 0.02 l-0.1 -0.04 l0 0.02 c0 0.02 -0.04 0.06 -0.06 0.06 c-0.04 0.02 -0.06 0.04 -0.06 0.06 l0 0.02 c0 0.04 -0.06 0.08 -0.1 0.08 l-0.02 0.02 l0.02 0.04 c0.02 0 0.04 0.02 0.04 0.04 s-0.02 0.04 -0.04 0.04 l-0.02 0 l-0.02 0.04 c0 0.04 0 0.04 0.04 0.04 l0.02 0 c0.02 0 0.02 0 0.02 0.02 l0.02 0.06 l-0.06 0 s-0.02 0.02 -0.02 0.06 s0.02 0.06 0.02 0.06 l0.02 -0.02 l0.02 0.04 l0 0.04 c0 0.04 0 0.06 -0.02 0.06 l-0.02 0 s-0.02 0.02 -0.02 0.06 s0.02 0.06 0.02 0.06 c0.04 0 0.06 0.1 0.06 0.2 l0 0.04 l-0.04 -0.02 c-0.02 -0.04 -0.04 -0.04 -0.06 -0.04 l0.1 0.18 l-0.04 0.02 c-0.02 0 -0.04 0 -0.04 0.04 l0 0.02 c0 0.02 0.02 0.04 0.04 0.04 c0.04 0 0.04 0.02 0.04 0.04 s0 0.04 -0.04 0.04 c-0.02 0 -0.04 0.02 -0.04 0.1 c0 0.04 0.02 0.1 0.04 0.1 l0.02 -0.02 l-0.02 -0.12 l0.02 0 c0.04 0.04 0.06 0.14 0.06 0.24 c0 0.12 -0.04 0.26 -0.08 0.26 c-0.02 0 -0.04 0 -0.04 0.02 c0 0 0 0.04 -0.02 0.06 c0 0.04 0 0.04 0.04 0.04 c0.02 -0.02 0.04 -0.04 0.04 -0.08 l0 -0.02 l0.02 0.04 c0.04 0.04 0.04 0.28 0.04 0.66 c0 0.08 -0.02 0.12 -0.04 0.12 s-0.04 0 -0.04 0.02 l0 0.04 l0.02 -0.02 c0.04 0 0.06 0.02 0.06 0.12 c0 0.08 0 0.1 -0.02 0.1 l-0.02 -0.02 c-0.02 -0.04 -0.02 -0.06 -0.04 -0.06 l0 0.12 c0 0.08 0.02 0.14 0.02 0.14 c0.02 0 0.02 -0.02 0.02 -0.06 l0 -0.02 s0.02 0.04 0.02 0.1 l0.02 0.22 c0 0.06 0 0.1 -0.02 0.1 l-0.04 -0.02 c-0.02 0 -0.02 0 -0.02 0.02 l0 0.02 l-0.06 0.04 l0.02 0 c0.04 0 0.06 0.02 0.06 0.04 s-0.02 0.04 -0.04 0.04 l-0.02 0.02 l0.02 0 c0.02 0 0.04 -0.02 0.06 -0.06 l0.02 -0.04 l0.02 0.06 c0 0.04 -0.02 0.08 -0.04 0.1 l-0.02 0.04 l0.04 -0.02 l0.02 0.04 l-0.02 0.04 l-0.02 -0.02 l-0.06 0.06 l-0.02 0.04 l0.04 0 l0 0.04 c0 0.02 0.02 0.04 0.04 0.04 s0.02 0.04 0.04 0.1 c0 0.06 0 0.08 -0.02 0.08 l-0.02 0 c-0.02 0 -0.04 0.02 -0.04 0.06 l0.02 0.06 l0.02 0.02 l0 -0.02 c0 -0.04 0.02 -0.06 0.04 -0.08 l0.02 0.02 l-0.02 0.04 c0 0.04 0 0.12 0.02 0.18 l0.02 0.06 l-0.02 0.02 l-0.02 0.1 c0 0.06 -0.02 0.12 -0.04 0.12 s-0.02 0.04 -0.02 0.06 s0 0.02 0.02 0.02 c0 -0.02 0.02 -0.04 0.04 -0.04 s0.04 0.04 0.04 0.06 s-0.02 0.04 -0.04 0.06 l-0.02 0 l0.02 0 c0.02 0 0.04 0.02 0.04 0.1 l-0.04 0.46 l0 0.22 c0.02 0 0.02 0.16 0.02 0.34 c0 0.24 0 0.32 -0.04 0.36 l-0.04 0.04 l-0.04 -0.02 l-0.08 0.04 l0.02 0.02 c0.02 0 0.02 0.02 0.02 0.06 c-0.02 0.04 -0.06 0.06 -0.08 0.06 s-0.02 0 -0.02 -0.02 l0 -0.02 c-0.02 0 -0.02 0 -0.06 0.04 z M46.471999999999994 12.4 l0 -0.04 c0 -0.02 -0.02 -0.02 -0.02 -0.02 l0 0.06 l0.02 0 z M47.471999999999994 13.52 l0.02 -0.02 l-0.04 -0.06 l0 0.04 c0 0.02 0 0.04 0.02 0.04 z M47.512 14.620000000000001 l-0.02 -0.06 l0.02 -0.04 c0 0.02 0.02 0.02 0.02 0.06 c0 0.02 0 0.04 -0.02 0.04 z M48.791999999999994 15.98 l0.04 -0.02 l-0.04 -0.02 c-0.02 0.02 -0.04 0.02 -0.04 0.04 l0.04 0 z M49.592 16.18 l0.14 -0.04 l0.08 -0.04 c0 -0.02 0.02 -0.02 0.04 -0.02 l0.08 0 l0 -0.02 s-0.02 -0.02 -0.06 -0.02 c-0.06 0 -0.1 0 -0.1 0.02 s-0.04 0.04 -0.06 0.04 l-0.16 0.08 l0.04 0 z M50.172 16.1 l0.04 -0.02 l-0.08 -0.02 c0 0.02 0.02 0.04 0.04 0.04 z M49.611999999999995 16.1 c0.02 0 0.02 -0.02 0.02 -0.02 l-0.02 -0.02 l-0.06 0.04 l0.06 0 z M48.992 16.28 l0 -0.04 c0 -0.02 -0.02 -0.04 -0.04 -0.04 l-0.02 -0.02 l0 0.02 l0.02 0.04 z M48.571999999999996 16.36 c0 -0.02 -0.02 -0.02 -0.02 -0.02 l-0.04 0.02 l0.06 0 z M46.032 16.98 l0.02 -0.02 c0 -0.02 -0.02 -0.04 -0.06 -0.04 l-0.04 0.02 z M47.452 17.64 l0.02 -0.02 l-0.02 -0.04 c-0.02 0 -0.04 0.02 -0.04 0.04 z M47.512 18.54 l0.02 -0.02 l-0.02 -0.02 l-0.04 -0.02 c-0.02 0 -0.02 0 -0.02 0.02 l0 0.02 c0.02 0.02 0.04 0.02 0.06 0.02 z M47.492 19.38 l0.04 -0.02 l-0.04 -0.04 l-0.02 0.04 z M47.431999999999995 20.92 l0 -0.02 c0.02 -0.02 0.04 -0.04 0.06 -0.04 s0.04 -0.02 0.04 -0.04 c0 0 0 -0.02 -0.02 -0.02 l-0.04 0.02 c-0.04 0.02 -0.06 0.06 -0.06 0.08 s0 0.02 0.02 0.02 z M47.471999999999994 21.3 c0.04 0 0.06 -0.02 0.06 -0.1 l-0.02 -0.06 l0 0.04 c-0.02 0.06 -0.1 0.06 -0.1 0.08 s0.02 0.04 0.06 0.04 z M57.235 18.28 l-0.2 -0.04 c0 0.02 -0.04 0.02 -0.06 0.02 c-0.04 0 -0.08 0 -0.12 -0.02 c-0.2 -0.06 -0.38 -0.18 -0.54 -0.36 c-0.04 -0.02 -0.1 -0.08 -0.14 -0.12 s-0.08 -0.08 -0.08 -0.1 l-0.12 -0.14 c-0.06 -0.06 -0.12 -0.16 -0.14 -0.2 l-0.08 -0.12 c-0.04 -0.04 -0.08 -0.1 -0.1 -0.16 l-0.04 -0.08 l-0.02 0 l-0.02 -0.04 c0 -0.02 -0.02 -0.16 -0.06 -0.3 l-0.02 -0.32 c0 -0.04 -0.02 -0.06 -0.04 -0.08 l-0.02 -0.02 l0.02 0 c0.02 0 0.02 -0.04 0.02 -0.14 c0 -0.08 0 -0.14 0.02 -0.14 s0.02 -0.06 0.02 -0.14 c0 -0.24 0 -0.36 0.04 -0.42 l0.02 -0.06 l-0.04 -0.04 l0.02 -0.02 l0.04 -0.16 c0.02 -0.02 0.02 -0.08 0.02 -0.12 c0 -0.06 0 -0.1 0.02 -0.1 l0.02 -0.02 l-0.02 -0.04 c0 -0.06 0 -0.08 0.04 -0.12 l0.02 -0.04 l0 -0.04 c0 -0.06 0.04 -0.28 0.08 -0.3 c0 0 0 -0.02 -0.02 -0.02 l-0.02 -0.02 c0 -0.04 0.06 -0.12 0.12 -0.16 l0.02 -0.04 l-0.04 0.02 c-0.02 0 -0.04 0 -0.04 -0.02 l0.02 -0.04 c0 -0.04 0.02 -0.08 0.04 -0.08 l0.02 -0.04 l-0.02 -0.02 s0 -0.06 0.04 -0.1 l0.04 -0.08 l-0.04 0 c-0.02 0 -0.04 0 -0.04 -0.02 l0.04 -0.02 c0.02 -0.02 0.04 -0.02 0.04 -0.04 l0.02 -0.08 l0.04 -0.08 l-0.04 -0.04 l0.02 0 c0.02 0 0.04 -0.12 0.1 -0.42 c0 -0.02 0 -0.04 -0.02 -0.04 l-0.02 0 c0 -0.04 0.04 -0.1 0.06 -0.12 c0.04 -0.02 0.06 -0.06 0.06 -0.08 c0 -0.04 0 -0.06 0.02 -0.06 l0.02 -0.04 c0 -0.04 -0.02 -0.1 -0.04 -0.12 c0 -0.02 0 -0.02 0.02 -0.02 l0.02 0 c0.02 0 0.02 0 0.02 -0.02 l-0.04 0 c-0.04 0 -0.06 0 -0.06 -0.04 l-0.02 -0.04 c-0.02 0 -0.02 0.02 -0.02 0.04 l0 0.04 l-0.02 0 c-0.02 0 -0.02 -0.02 -0.02 -0.04 s0 -0.04 -0.02 -0.04 s-0.02 0.02 -0.02 0.06 c0 0.02 0 0.06 0.02 0.08 l0.02 0.02 l-0.02 0.02 c-0.04 0 -0.12 -0.06 -0.12 -0.12 c0 -0.02 0 -0.02 -0.02 -0.02 c-0.02 0.02 -0.06 0.04 -0.1 0.04 l-0.02 0 c0 -0.02 -0.06 -0.06 -0.14 -0.08 c-0.06 -0.02 -0.12 -0.04 -0.12 -0.06 c-0.02 0 -0.06 -0.04 -0.1 -0.08 l-0.06 -0.06 c0 -0.02 -0.02 -0.04 -0.06 -0.08 l-0.1 -0.08 c-0.04 -0.02 -0.12 -0.1 -0.12 -0.14 s-0.08 -0.1 -0.12 -0.1 l-0.02 0 l0 -0.02 l-0.04 -0.1 c-0.08 -0.08 -0.12 -0.16 -0.12 -0.24 l0.04 -0.12 c0.04 -0.06 0.06 -0.1 0.14 -0.1 l0.14 0.02 l0.34 -0.02 c0.04 -0.02 0.12 -0.02 0.16 -0.02 l0.3 -0.04 c0.02 0 0.38 -0.08 0.46 -0.12 c0.04 0 0.06 0 0.06 0.04 c0 0.02 0 0.04 0.02 0.04 l0.02 -0.02 l-0.02 -0.04 c0 -0.04 0 -0.04 0.06 -0.04 l0.02 0 c0.08 0 0.18 -0.12 0.18 -0.2 l0 -0.04 l0.06 0.02 l-0.04 -0.08 l0.02 -0.04 c0.02 -0.02 0.04 -0.08 0.04 -0.14 l0.06 -0.22 l0.02 -0.2 l0.04 0.02 l-0.02 -0.06 l0.08 -0.22 c0.02 -0.04 0.04 -0.1 0.04 -0.14 l0.06 -0.12 l-0.04 -0.1 c0.02 0 0.04 -0.02 0.04 -0.04 l0.04 -0.08 c0.02 0 0.02 -0.04 0.02 -0.08 s0.02 -0.06 0.02 -0.06 c0.02 0 0.02 -0.02 0.02 -0.04 l0.02 -0.08 c0.02 0 0.04 -0.04 0.04 -0.1 l0.02 -0.1 l0.12 -0.26 l0 -0.08 c0 -0.02 0 -0.06 0.02 -0.06 l0.02 -0.02 l0 -0.02 c0 -0.02 0 -0.04 0.02 -0.06 c0.02 0 0.04 -0.04 0.04 -0.08 l0.04 -0.08 s0 -0.02 -0.02 -0.02 c0 0 0 -0.02 0.04 -0.04 c0.02 -0.04 0.04 -0.08 0.04 -0.14 c0 -0.04 0 -0.06 0.02 -0.06 l0.02 -0.02 c0 -0.02 0.02 -0.12 0.08 -0.22 l0.08 -0.22 l0.08 -0.26 c0 -0.02 0.02 -0.06 0.04 -0.06 c0.02 -0.02 0.04 -0.04 0.04 -0.06 s0.02 -0.08 0.06 -0.12 s0.08 -0.08 0.12 -0.08 l0.02 0 c0.02 0 0.04 0.02 0.06 0.04 l0.14 0.04 c0.06 0 0.12 0.02 0.12 0.04 l0.08 0.06 c0.1 0.06 0.18 0.12 0.26 0.24 c0.04 0.04 0.06 0.08 0.08 0.08 c0.06 0.02 0.22 0.28 0.22 0.36 l-0.02 0.02 l0.02 0.06 c0.04 0.02 0.06 0.06 0.06 0.08 c0 0.04 -0.02 0.06 -0.06 0.1 l-0.02 0.06 l0.02 0.02 c0.02 0.02 0.04 0.06 0.04 0.1 c0 0.02 0 0.04 -0.02 0.04 l-0.02 0.04 l0.04 0.06 l-0.02 0.02 c-0.04 0 -0.12 0.08 -0.12 0.12 l-0.04 0.08 l-0.04 0.08 l-0.02 0.06 l-0.04 0.02 l0 -0.04 l0.02 -0.02 l-0.02 -0.02 c-0.02 0 -0.04 0.02 -0.04 0.04 c0 0.04 0.02 0.06 0.02 0.06 c0.02 0 0.06 0.02 0.06 0.04 l0.02 0.04 c0 0.02 -0.02 0.02 -0.06 0.02 l-0.04 0 l0 0.02 l-0.02 0.04 c-0.02 0 -0.02 0 -0.02 0.02 c0 0.06 -0.08 0.22 -0.12 0.24 c0 0 0 0.04 0.04 0.06 l0.04 0.06 l-0.06 0 l0 0.02 c0 0.04 0 0.06 -0.02 0.06 c-0.02 0.02 -0.04 0.04 -0.04 0.06 c0 0.04 -0.02 0.06 -0.02 0.06 l-0.02 0 l-0.02 0.04 c0 0.02 0 0.06 -0.04 0.08 l-0.06 0.04 l-0.06 -0.02 c-0.02 0 -0.02 0.02 -0.02 0.04 s0.04 0.04 0.06 0.04 s0.04 0.02 0.06 0.04 c0 0.02 0 0.02 -0.02 0.02 c-0.04 0 -0.04 0.02 -0.04 0.08 l0 0.08 c-0.02 0 -0.08 0.1 -0.08 0.14 c0 0.02 -0.02 0.08 -0.06 0.14 l-0.04 0.1 l-0.06 -0.14 c-0.02 0 -0.02 0 -0.02 0.02 l0.04 0.08 c0 0.02 -0.02 0.02 -0.04 0.02 l-0.04 -0.02 l-0.02 0.04 c0 0.02 0.02 0.04 0.08 0.04 l0.04 0.02 c-0.04 0 -0.06 0.04 -0.08 0.06 l-0.02 0.04 l-0.04 -0.06 l0 0.02 c0 0.06 0.12 0.12 0.18 0.12 s0.32 -0.06 0.52 -0.1 c0.04 0 0.08 0 0.1 0.02 l0.06 0.02 l0.08 -0.04 c0 -0.02 0 -0.02 0.02 -0.02 s0.04 0 0.04 -0.02 c0 0 0.04 -0.02 0.1 -0.02 s0.14 -0.02 0.16 -0.04 l0.24 0 c0 -0.04 0.12 -0.06 0.18 -0.06 l0.08 0 c0 -0.02 0.04 -0.02 0.06 -0.02 l0.04 0 l-0.04 0.04 l0.06 0.02 l0.04 -0.02 l0 -0.02 c0 -0.02 0 -0.04 0.02 -0.04 c0.04 0 0.04 0 0.04 -0.02 s0.04 -0.02 0.08 -0.02 l0.08 0 c0.12 0 0.3 -0.02 0.38 -0.04 l0.16 -0.02 l0.32 0 c0.04 0 0.08 -0.02 0.1 -0.04 l0.04 -0.02 l0.08 0.02 l0.5 0.06 c0.3 0.04 0.4 0.06 0.42 0.08 l0.08 0.04 l0.02 0 c0.02 0 0.02 0.02 0.04 0.04 l0.04 0.06 l0.02 0 l0 0.04 c0 0.04 0 0.06 0.02 0.06 l0.08 -0.04 l-0.02 0.04 c0 0.02 0.02 0.06 0.08 0.1 c0.06 0.02 0.1 0.06 0.1 0.1 c0 0.02 -0.02 0.04 -0.04 0.04 l-0.04 0.02 c0 0.02 0.04 0.04 0.08 0.04 c0.02 0 0.04 0.02 0.04 0.04 l0 0.08 l0.06 0 c0 0.02 0 0.04 -0.02 0.04 l-0.02 0.02 l0.06 0.08 l-0.02 0.02 l-0.04 0.02 l-0.02 -0.02 l-0.02 0.02 c-0.02 0.02 -0.08 0.04 -0.14 0.04 c-0.04 0 -0.08 -0.02 -0.08 -0.04 l0 -0.02 c0 -0.02 0 -0.02 0.02 -0.02 s0.02 -0.02 0.02 -0.02 c0 -0.04 -0.02 -0.06 -0.04 -0.08 l-0.06 0 s0 0.02 0.02 0.02 s0.02 0.02 0.02 0.04 c0 0.06 -0.02 0.12 -0.04 0.14 l0 0.02 l0.12 0.06 l0.04 -0.02 l0.02 -0.04 l0 0.04 c-0.02 0.04 -0.1 0.06 -0.2 0.06 l-0.1 -0.06 l-0.02 -0.04 c0 -0.02 0.02 -0.02 0.04 -0.02 l0.04 0 c0 -0.02 -0.02 -0.04 -0.06 -0.06 l-0.06 0 c0 0.08 0 0.14 0.02 0.14 l0.02 0.04 c0 0.04 -0.02 0.06 -0.02 0.06 c-0.02 0 -0.04 -0.02 -0.04 -0.04 s0 -0.02 -0.02 -0.02 l-0.08 0.06 l-0.02 -0.02 l0 -0.02 l-0.02 0.02 l-0.14 0.02 c-0.08 0 -0.18 -0.02 -0.18 -0.04 l-0.04 -0.02 l0 0.04 c0 0.02 -0.02 0.02 -0.06 0.02 s-0.08 0 -0.08 0.02 l-0.02 0.02 l-0.12 -0.04 l-0.08 0.02 l-0.08 0.06 c0 0.02 -0.02 0.04 -0.06 0.06 l-0.06 0.02 c-0.02 0 -0.02 -0.02 -0.02 -0.04 c0 -0.04 0.02 -0.06 0.04 -0.06 l0.06 0 l0 -0.02 c0 -0.02 -0.02 -0.02 -0.06 -0.02 l-0.04 0 c-0.02 0.02 -0.08 0.04 -0.12 0.04 s-0.08 0 -0.1 0.02 c-0.02 0 -0.04 0 -0.04 -0.02 l-0.16 0.02 c-0.1 0.02 -0.14 0.06 -0.14 0.08 l0.06 0.02 l-0.16 0.06 c-0.08 0 -0.1 0.02 -0.1 0.04 l0 0.02 c0 0.02 -0.04 0.04 -0.08 0.04 l-0.02 -0.08 c0 -0.06 0.02 -0.06 0.1 -0.08 c0.06 -0.02 0.1 -0.04 0.1 -0.06 l0 -0.02 c0 -0.02 0 -0.02 -0.02 -0.02 s-0.04 0 -0.04 0.02 s-0.04 0.04 -0.06 0.04 c-0.04 0 -0.08 0 -0.08 0.02 s-0.04 0.02 -0.08 0.02 l-0.02 0 c-0.04 0 -0.04 0.02 -0.04 0.04 l0.02 0.04 l-0.02 0.02 l-0.36 0.08 c-0.08 0 -0.08 0 -0.08 -0.04 l0.02 -0.04 l0.12 0 c0 -0.02 -0.04 -0.04 -0.08 -0.04 l-0.08 0.02 c-0.02 0.02 -0.04 0.02 -0.04 0.04 c0.02 0 0.04 0.02 0.04 0.06 l-0.02 0.02 l-0.22 0.02 c-0.06 0.02 -0.14 0.04 -0.22 0.04 c-0.06 0 -0.12 0.02 -0.14 0.04 l-0.06 0.02 c-0.04 0 -0.06 -0.02 -0.06 -0.06 c0 -0.02 -0.02 -0.04 -0.04 -0.04 s-0.06 0.02 -0.06 0.06 c-0.02 0.04 -0.04 0.06 -0.14 0.08 l-0.16 0.02 l-0.02 0 l-0.08 0.02 l-0.02 -0.04 l0 -0.04 c0 -0.02 0 -0.02 -0.02 -0.02 s-0.02 0.02 -0.02 0.04 c0 0.04 -0.02 0.08 -0.06 0.08 l-0.02 0 c-0.04 0 -0.06 0 -0.08 0.02 l-0.08 0.04 c-0.02 0 -0.04 0 -0.06 0.02 l-0.02 0.02 l-0.02 -0.02 l-0.2 0.06 l-0.06 -0.04 l0 0.14 c-0.02 0 -0.04 -0.02 -0.04 -0.06 c0 -0.02 0 -0.02 -0.02 -0.02 l-0.02 0 c-0.02 0 -0.02 0.02 -0.02 0.04 l0 0.02 c-0.02 0 -0.02 0.02 -0.02 0.04 l0 0.04 l-0.02 0.04 l-0.02 0.02 l-0.02 -0.02 c0 -0.02 0 -0.02 -0.02 -0.02 s-0.06 0.08 -0.06 0.14 l0 0.04 c0 0.04 -0.02 0.08 -0.06 0.1 c-0.02 0 -0.04 0.04 -0.04 0.06 c0 0.04 0.02 0.06 0.04 0.1 c0.02 0.02 0.04 0.04 0.04 0.06 l0 0.02 l-0.02 -0.02 c0 -0.02 -0.02 -0.02 -0.04 -0.02 s-0.04 0 -0.04 0.04 s0.04 0.04 0.08 0.04 c0.02 0 0.02 0.02 0.02 0.04 l0 0.02 l-0.08 -0.04 l0.02 0.08 c0 0.06 -0.04 0.12 -0.08 0.12 s-0.04 0 -0.04 0.02 s0 0.02 0.02 0.02 s0.02 0.04 0.02 0.1 s0.02 0.1 0.02 0.1 l0.04 0 l-0.04 0.08 c-0.02 0.02 -0.04 0.04 -0.04 0.06 l0.04 0.08 l-0.04 0.1 c-0.02 0.04 -0.04 0.08 -0.06 0.08 l-0.02 0 l0.02 0.1 c0 0.02 0 0.02 -0.02 0.02 l-0.04 0 c-0.04 0 -0.06 0.02 -0.06 0.02 c0 0.02 0.02 0.04 0.04 0.04 l0.02 0.02 l0.02 -0.02 c0 -0.02 0 -0.02 0.02 -0.02 l0 0.06 c-0.02 0.02 -0.02 0.04 -0.04 0.04 l-0.02 0 c-0.04 0 -0.04 0 -0.04 0.04 s0 0.04 0.02 0.04 l0.02 -0.02 c0.02 0 0.02 0.02 0.02 0.06 l-0.06 0.12 l0 -0.04 c0 -0.04 0 -0.06 -0.02 -0.06 c0 0 -0.02 0.02 -0.02 0.06 c0 0.06 0 0.1 -0.02 0.14 l0 0.04 l0.02 0.04 l0.02 0.02 l-0.04 0.04 c-0.02 0.02 -0.04 0.02 -0.04 0.06 l0 0.1 l-0.04 -0.02 l-0.02 -0.02 l0.02 0.04 l-0.02 0.02 c-0.02 0.02 -0.02 0.06 -0.02 0.12 l0.02 0.08 l-0.02 0.02 c-0.02 0 -0.04 0.06 -0.06 0.16 c0 0.02 -0.02 0.08 -0.04 0.1 l0 0.08 c0.04 0 0.06 -0.04 0.06 -0.1 c0 -0.04 0 -0.08 0.02 -0.08 s0.02 0.02 0.02 0.06 c0 0.06 -0.02 0.16 -0.04 0.2 l-0.04 0.16 c0 0.08 0 0.1 -0.06 0.12 c-0.04 0.02 -0.06 0.04 -0.06 0.06 l0.04 0.02 c0.02 0 0.02 0 0.02 0.02 l-0.02 0.06 c-0.02 0 -0.02 0.04 -0.02 0.06 l0.02 0.04 l-0.04 0 s-0.02 0 -0.02 0.02 l0.02 0.02 c0.04 0 0.1 0.06 0.1 0.1 l0 0.02 l-0.08 -0.06 c-0.02 0 -0.02 0.02 -0.02 0.04 l0 0.04 l-0.02 0 l-0.02 0.04 c0 0.12 -0.02 0.14 -0.04 0.14 l-0.02 0 c-0.02 0 -0.02 0 -0.02 0.02 l0.04 0.02 c0.02 0 0.04 0 0.04 0.04 l-0.04 0.1 l-0.02 0.08 c0.02 0 0.02 0.04 0.02 0.08 c0 0.06 -0.02 0.14 -0.04 0.18 l0 0.02 l0.04 0 c0.02 0 0.02 0 0.02 0.02 c-0.02 0.02 -0.02 0.04 -0.02 0.06 l-0.02 -0.02 c-0.02 0 -0.02 0 -0.02 0.02 c0 0.04 0.02 0.04 0.02 0.04 c0.02 0 0.04 0 0.04 -0.02 l0.14 -0.08 c0.04 -0.08 0.08 -0.1 0.12 -0.1 l0.04 0.02 c0.02 0 0.02 -0.02 0.02 -0.06 c0 -0.06 0.04 -0.1 0.08 -0.1 l0.04 0 l0.02 -0.04 l0.06 -0.08 l0.02 0 l-0.04 0.06 l0.04 0 c0.02 0 0.02 -0.04 0.02 -0.04 c0 -0.02 0.04 -0.06 0.06 -0.08 c0.04 -0.02 0.06 -0.06 0.06 -0.1 c0 -0.02 0.02 -0.06 0.06 -0.08 l0.1 -0.12 c0.02 -0.04 0.04 -0.08 0.06 -0.08 s0.04 -0.04 0.04 -0.06 c0.02 -0.06 0.04 -0.1 0.08 -0.1 l0.02 0.02 l0.02 0.04 l0.06 -0.06 l-0.04 -0.04 c-0.02 0 -0.02 0 -0.02 -0.02 l0.02 -0.02 c0.08 -0.08 0.14 -0.14 0.2 -0.24 c0.04 -0.04 0.08 -0.06 0.14 -0.08 c0.04 0 0.12 -0.02 0.16 -0.08 c0.04 -0.04 0.06 -0.08 0.06 -0.1 l-0.06 0.04 l-0.02 -0.02 l0.02 -0.06 c0.02 -0.04 0.04 -0.06 0.06 -0.06 s0.02 0.02 0.02 0.04 s0.02 0.02 0.04 0.02 l0 -0.04 s0 -0.02 0.02 -0.02 l0.02 0 l-0.04 -0.02 l-0.02 0 l-0.02 -0.02 l0.04 -0.02 l0.02 -0.04 c0 -0.02 0 -0.02 0.02 -0.02 c0 0 0.02 -0.02 0.02 -0.06 l0.08 -0.06 c0.04 0 0.06 -0.04 0.06 -0.06 l0 -0.02 c0 -0.02 0.04 -0.04 0.08 -0.08 l0.04 -0.02 l-0.04 0 l0.04 -0.04 c0.02 -0.02 0.06 -0.02 0.1 -0.02 l0.02 0 c0.02 0 0.04 0 0.04 -0.02 s0.02 -0.02 0.04 -0.02 l0.02 0 l0.08 -0.04 l0.1 -0.12 l-0.02 0 c-0.02 0 -0.04 0 -0.04 -0.02 c0 0 0 -0.02 -0.02 -0.02 s-0.02 0.02 -0.02 0.04 c0 0.04 -0.04 0.08 -0.06 0.08 l-0.02 0 l0 -0.04 c0 -0.04 0 -0.06 0.02 -0.06 s0.02 -0.02 0.02 -0.04 s0.02 -0.04 0.04 -0.04 s0.04 0 0.04 -0.02 c0 -0.04 0.02 -0.06 0.04 -0.06 l0.02 0 l-0.02 0.1 l0.08 -0.04 l0.06 0.02 c0.06 0 0.06 0 0.06 -0.02 s0.02 -0.04 0.04 -0.04 l0.04 0.02 c0 0.02 0.02 0.02 0.04 0.02 s0.04 0 0.04 0.02 c0 0.04 -0.02 0.06 -0.04 0.06 c-0.04 0 -0.06 0.04 -0.06 0.06 l-0.08 0.1 l-0.06 0.02 l-0.04 -0.02 c-0.02 -0.04 -0.04 -0.04 -0.04 -0.04 l0 0.02 c0 0.04 0.08 0.1 0.1 0.1 l0.06 -0.02 l0 0.04 l0.06 -0.02 c0.04 -0.02 0.08 -0.04 0.08 -0.06 l0.04 -0.02 c0.02 0 0.04 0.02 0.04 0.04 l0.04 0.04 l-0.02 0 l-0.08 0.02 c0 0.02 -0.02 0.04 -0.08 0.06 l-0.08 0.06 c0 0.02 0.02 0.02 0.04 0.02 c0.04 0.02 0.06 0.04 0.06 0.06 l-0.04 0.08 l0.06 -0.06 l0.04 0.04 l0.02 0.08 l-0.04 -0.06 l-0.02 0.02 c0 0.02 0 0.04 0.04 0.04 c0.04 0.02 0.04 0.04 0.04 0.06 s0 0.04 -0.02 0.06 l-0.02 0.02 l0.02 0 c0.02 0 0.06 -0.04 0.08 -0.06 l0.02 -0.04 l-0.04 -0.02 c-0.02 0 -0.02 -0.02 -0.02 -0.02 c0 -0.02 0 -0.04 0.02 -0.04 c0.04 0 0.08 0.02 0.08 0.06 l-0.04 0.16 s0 0.02 -0.02 0.02 s-0.02 0 -0.02 0.02 l0 0.04 c0 0.02 0 0.04 -0.02 0.04 l-0.02 -0.02 l0 0.02 l-0.02 0.02 l-0.04 -0.04 l-0.06 -0.02 l-0.06 0.02 l-0.02 -0.02 l-0.04 -0.02 l-0.02 0.02 c0 0.02 0.04 0.04 0.08 0.04 l0.02 0 c0.02 0 0.04 0 0.04 0.02 c0 0.06 -0.02 0.08 -0.04 0.08 l0.04 0.06 l-0.04 -0.02 l-0.08 -0.06 c0 -0.02 0 -0.02 -0.02 -0.02 l0.02 0.06 l0.04 0.06 c0 0.02 -0.02 0.02 -0.08 0.04 c-0.04 0 -0.06 0.02 -0.06 0.02 c0 0.02 0 0.02 0.02 0.02 l0.02 0.04 c0 0.02 0.02 0.04 0.04 0.04 c0.04 0 0.08 -0.02 0.14 -0.06 l0.1 -0.12 l0 -0.02 l-0.04 0.02 l0.02 -0.04 c0 -0.02 0.04 -0.04 0.06 -0.04 l0.02 0 c0.02 0 0.02 0 0.02 -0.02 l0 -0.02 l0.02 0 l0.04 -0.02 c0.02 -0.04 0.1 -0.08 0.14 -0.08 l0.02 0 s-0.02 0.04 -0.06 0.06 l-0.06 0.06 l-0.02 0.06 l-0.1 0.12 c-0.04 0.02 -0.08 0.04 -0.08 0.06 s-0.04 0.06 -0.08 0.1 l-0.1 0.08 l-0.04 0.04 l0.02 0.04 l0.04 0.02 l0 -0.04 l0.04 0.06 c0 0.04 -0.04 0.12 -0.08 0.12 l-0.02 0 c-0.02 0 -0.04 0.02 -0.06 0.04 c-0.04 0.04 -0.08 0.06 -0.1 0.06 l-0.1 -0.02 l-0.02 0.02 l0.02 0.08 c0 0.02 -0.02 0.02 -0.04 0.02 l-0.14 0 c0 0.02 0.02 0.02 0.04 0.02 l0.04 0.02 c0.02 0 0.02 0 0.02 0.04 c0 0.02 -0.02 0.02 -0.04 0.02 c-0.04 0 -0.04 0.02 -0.04 0.02 l0.04 0.02 l0.02 0 c0.02 0 0.04 0 0.04 0.02 s-0.04 0.02 -0.06 0.02 c-0.04 0 -0.04 0 -0.04 0.04 l0.02 0.02 l-0.02 0.02 l-0.02 0 l-0.02 -0.04 c0 -0.02 -0.04 -0.04 -0.06 -0.06 c-0.02 0 -0.08 0 -0.12 -0.02 c-0.06 0 -0.08 0 -0.08 0.02 l0 0.02 c-0.02 0 -0.02 0.02 -0.02 0.08 l0 0.06 l0.02 -0.04 c0 -0.04 0.02 -0.06 0.04 -0.08 c0.02 0 0.02 0 0.02 0.02 l0 0.02 c0 0.02 0 0.04 0.02 0.04 l0.02 -0.04 c0.02 -0.02 0.02 -0.04 0.04 -0.04 l0.02 0 c0.04 0.02 0.06 0.04 0.06 0.06 l-0.04 0 l-0.04 0.02 l0.06 0.08 l-0.04 0 l0 0.02 c0 0.02 0.02 0.02 0.06 0.02 c0.06 0 0.08 0.02 0.1 0.04 l0 0.02 c0 0.04 -0.08 0.12 -0.12 0.12 l-0.04 0 s-0.02 0 -0.02 0.02 s-0.02 0.04 -0.04 0.06 s-0.04 0.08 -0.06 0.14 c-0.04 0.06 -0.04 0.08 -0.08 0.08 l-0.06 0 c-0.06 0 -0.1 0.02 -0.1 0.04 c0 0.04 0 0.08 -0.02 0.1 l-0.02 0.06 c0 0.02 -0.02 0.04 -0.04 0.06 l-0.02 0.04 l0.02 0.04 l0.04 0.02 l-0.04 0.04 c-0.02 0.02 -0.04 0.02 -0.06 0.02 l-0.02 0 l0 0.02 c0 0.04 -0.02 0.06 -0.04 0.06 s-0.04 0 -0.04 -0.02 l-0.02 -0.02 l-0.06 0.02 c-0.06 0.04 -0.08 0.06 -0.08 0.12 l0 0.02 l0.08 -0.08 l0 0.04 c0 0.06 -0.06 0.1 -0.08 0.1 l-0.02 0 l-0.04 -0.04 l-0.02 0.04 c0 0.02 0.02 0.04 0.04 0.04 l0.02 0 c0 0.02 -0.02 0.02 -0.04 0.02 c-0.04 0.02 -0.1 0.02 -0.1 0.02 l-0.02 0 l-0.06 0.02 l-0.08 0.04 l-0.02 -0.02 l0 0.06 l-0.02 0 c-0.02 0 -0.04 0.02 -0.04 0.04 l0 0.02 c0 0.02 -0.02 0.04 -0.06 0.06 l-0.1 0.02 l0.02 -0.04 l-0.02 0 c-0.02 0 -0.02 0.04 -0.02 0.06 s0.02 0.04 0.04 0.04 l0.08 -0.06 l0.02 0.04 c0 0.04 -0.12 0.08 -0.24 0.08 c-0.02 0 -0.04 0 -0.04 0.02 z M59.155 8.34 c-0.02 0 -0.02 0 -0.02 -0.02 s0.02 -0.02 0.02 -0.02 c0.02 0 0.02 0 0.02 0.02 z M58.555 9.28 c0.02 0 0.02 -0.04 0.02 -0.06 c0 -0.04 0 -0.08 -0.02 -0.08 l-0.02 0.02 l0 0.12 l0.02 0 z M58.495 9.5 l0.08 -0.16 l-0.04 -0.02 l-0.02 0 l0 0.02 c0 0.02 -0.02 0.04 -0.04 0.06 s-0.04 0.02 -0.04 0.04 l0.02 0.04 z M58.235 10.2 c0.02 0 0.04 -0.02 0.06 -0.04 l0 -0.08 l-0.02 0 c-0.02 0 -0.06 0.08 -0.06 0.1 z M59.754999999999995 10.32 l-0.02 -0.02 c0 -0.02 0.1 -0.04 0.18 -0.06 l0.04 0.02 s-0.16 0.06 -0.2 0.06 z M61.955 11.08 c0.02 -0.02 0.04 -0.04 0.04 -0.06 l0 -0.02 c-0.02 0 -0.02 0.02 -0.06 0.04 l-0.02 0.04 l0.04 0 z M62.155 11.22 c0.02 0 0.02 -0.02 0.02 -0.04 c0 0 0 -0.02 -0.02 -0.02 l-0.02 0.02 z M62.095 11.28 c0.04 0 0.06 0 0.06 -0.02 l-0.08 -0.04 l-0.04 0.02 c0 0.02 0.02 0.04 0.06 0.04 z M62.394999999999996 11.4 l-0.08 0 l0.02 -0.02 c0.02 -0.02 0.04 -0.02 0.06 -0.02 s0.02 0.02 0.02 0.02 c0 0.02 0 0.02 -0.02 0.02 z M61.074999999999996 11.4 c0.02 -0.02 0.04 -0.02 0.04 -0.04 l0 -0.02 l-0.08 0.04 z M61.455 11.48 l-0.02 -0.04 l0.02 -0.02 l0.02 0.02 z M59.955 11.64 c0.02 0 0.02 -0.02 0.04 -0.04 l0 -0.04 s-0.02 0 -0.02 0.02 l-0.04 0.04 z M60.254999999999995 11.68 l-0.04 0 l-0.04 -0.02 l0.02 -0.04 c0.02 0.02 0.04 0.02 0.04 0.04 z M59.315 11.78 l0.04 -0.04 s0 -0.02 -0.02 -0.02 l-0.02 0.02 l0 0.04 z M59.19499999999999 11.78 l-0.04 -0.02 c0 -0.02 -0.02 -0.02 -0.04 -0.02 l-0.04 0 l-0.02 0.02 l0.08 0.02 l0.06 0 z M58.735 11.86 c0.02 0 0.04 0 0.04 -0.02 l0 -0.02 c-0.02 0 -0.04 0 -0.04 0.02 l0 0.02 z M58.635 11.88 l0.04 -0.02 l-0.04 -0.02 s-0.02 0 -0.02 0.02 z M58.495 11.9 c0.04 0 0.08 0 0.08 -0.02 s-0.02 -0.04 -0.04 -0.04 l-0.06 0.02 l0 0.04 l0.02 0 z M59.074999999999996 11.96 l-0.02 -0.04 l0.02 0 l0.04 0.02 c0 0.02 0 0.02 -0.04 0.02 z M58.235 11.98 c0.04 0 0.08 0 0.1 -0.02 c0 -0.02 0 -0.04 -0.02 -0.04 l0 -0.02 l-0.02 0.02 c-0.04 0 -0.08 0.02 -0.08 0.06 l0.02 0 z M58.055 12 l0.04 -0.02 l-0.02 -0.04 c-0.02 0 -0.02 0 -0.02 0.02 l0 0.04 z M57.474999999999994 12.42 c0 0 0.02 0 0.02 -0.02 l-0.02 -0.02 l-0.02 0.02 c0 0.02 0 0.02 0.02 0.02 z M57.595 12.48 l-0.04 -0.02 l0 -0.02 c0 -0.02 0 -0.02 0.02 -0.02 l0.02 0 l0.04 0.02 z M57.495 12.74 l-0.02 -0.04 l0.02 -0.02 c0.02 0 0.04 0.02 0.04 0.04 z M56.114999999999995 13.36 l0.02 -0.02 c0 -0.02 -0.02 -0.04 -0.04 -0.04 s-0.02 0 -0.02 0.02 s0.02 0.04 0.04 0.04 z M55.915 13.440000000000001 l-0.04 -0.02 c0 -0.02 0.02 -0.04 0.04 -0.04 s0.02 0 0.02 0.02 z M57.315 13.58 l0.02 -0.02 l-0.02 -0.04 l-0.02 0.02 c0 0.02 0 0.04 0.02 0.04 z M57.294999999999995 13.64 c0 0 0.02 0 0.02 -0.02 l-0.02 -0.02 l-0.02 0.02 c0 0.02 0 0.02 0.02 0.02 z M59.214999999999996 14.280000000000001 l-0.04 -0.02 c0 -0.02 0.02 -0.02 0.04 -0.02 l0 -0.02 l0.02 -0.08 c0.02 -0.02 0.04 -0.02 0.06 -0.02 l-0.04 0.08 l0 0.06 z M59.434999999999995 14.58 c-0.04 0 -0.04 -0.02 -0.04 -0.04 s0.02 -0.04 0.06 -0.04 c0.02 0 0.02 0 0.02 0.02 s-0.02 0.04 -0.04 0.06 z M59.635 14.6 c0 0 -0.02 0 -0.02 -0.02 l-0.02 -0.02 l0.02 0 c0.02 0 0.02 0 0.02 0.02 l0 0.02 z M59.19499999999999 14.7 c0.02 0 0.02 -0.02 0.02 -0.04 l-0.04 -0.02 c-0.02 0 -0.02 0 -0.02 0.02 z M59.635 14.74 l-0.02 -0.04 c0 -0.02 0 -0.02 0.02 -0.02 s0.02 0 0.02 0.02 z M59.455 14.84 c-0.02 0 -0.02 0 -0.02 -0.02 l0.04 -0.08 l0.04 -0.04 l0.02 0.04 l-0.02 0.06 z M59.535 14.879999999999999 l-0.04 -0.02 l0.04 -0.02 l0.04 0 l0 0.02 z M59.355 14.879999999999999 c0.02 0 0.02 0 0.02 -0.02 s0 -0.02 -0.02 -0.02 s-0.02 0 -0.02 0.02 c0 0 0 0.02 0.02 0.02 z M59.754999999999995 15.02 l-0.02 -0.02 l0.02 -0.04 l0.04 -0.02 l0 0.02 c0 0.02 -0.02 0.06 -0.04 0.06 z M59.254999999999995 15.02 c0.02 0 0.04 0 0.04 -0.02 l0.02 -0.04 l-0.02 -0.02 l-0.04 0.02 l-0.02 0.06 l0.02 0 z M59.875 15.16 l-0.02 -0.04 l0.04 -0.04 l0.04 -0.02 c0.02 0 0.02 0 0.02 0.02 z M59.474999999999994 15.2 l-0.04 -0.04 l-0.04 0 l0.02 0.04 l0.06 0 z M59.055 15.36 l0.06 -0.04 c0.04 -0.04 0.04 -0.06 0.04 -0.12 c-0.02 -0.04 -0.04 -0.06 -0.06 -0.06 c0 0 -0.02 0 -0.04 0.04 c0 0.02 0 0.02 0.02 0.02 l0.02 0 c0.02 0 0.02 0 0.02 0.02 l0.02 0.02 c0 0.04 -0.04 0.06 -0.08 0.06 l-0.04 -0.02 l-0.04 0.02 c0 0.02 0.04 0.04 0.08 0.06 z M59.214999999999996 15.3 c0.02 0 0.02 -0.02 0.02 -0.06 c0 -0.02 0 -0.04 -0.02 -0.04 l0 0.04 l-0.02 0.04 l-0.02 0.02 l0.04 0 z M58.214999999999996 15.32 c0 0 -0.02 0 -0.02 -0.02 l0.04 -0.02 l0.02 0.02 z M58.474999999999994 15.379999999999999 l0 -0.02 l-0.06 -0.06 l0 0.04 c0.02 0.02 0.04 0.04 0.06 0.04 z M59.074999999999996 15.58 c0.02 0 0.04 0 0.04 -0.02 l-0.02 -0.02 s-0.02 0 -0.02 0.02 l-0.02 0.02 l0.02 0 z M57.974999999999994 15.64 c0.02 0 0.04 -0.02 0.06 -0.06 l0.02 -0.02 l-0.02 -0.02 c-0.02 0 -0.08 0.04 -0.08 0.08 c0 0.02 0 0.02 0.02 0.02 z M56.855 15.54 l0 -0.04 c0 -0.02 -0.02 -0.02 -0.02 -0.02 l0 0.06 l0.02 0 z M59.114999999999995 15.940000000000001 c0.02 0 0.04 0 0.04 -0.02 l0 -0.02 l-0.02 -0.04 l-0.04 -0.04 l0.02 -0.04 c0.02 -0.02 0.04 -0.02 0.04 -0.04 l0 -0.02 s-0.02 0 -0.06 0.04 c-0.02 0.02 -0.06 0.04 -0.1 0.04 l-0.06 0 l0.02 0.02 c0.04 0.02 0.06 0.02 0.06 0.04 s0.02 0.02 0.04 0.02 c0.02 0.02 0.04 0.02 0.04 0.04 l0 0.02 l0.02 0 z M56.974999999999994 15.620000000000001 l0 -0.08 l0.02 0.04 z M59.455 15.82 l-0.02 -0.02 l0.02 -0.02 l0.04 0.02 c0 0.02 -0.02 0.02 -0.04 0.02 z M59.254999999999995 15.940000000000001 l-0.02 -0.04 l-0.04 -0.04 l0 0.02 c0 0.02 0.02 0.06 0.06 0.06 z M58.735 15.879999999999999 c0.02 0 0.04 0 0.04 -0.02 s-0.02 -0.02 -0.02 -0.02 s-0.02 0 -0.02 0.02 l-0.02 0.02 l0.02 0 z M57.114999999999995 15.82 c-0.04 0 -0.1 -0.02 -0.12 -0.06 l-0.02 -0.08 s0.02 0 0.04 0.04 c0.04 0.02 0.08 0.06 0.1 0.06 s0.02 0.02 0.02 0.02 c0 0.02 0 0.02 -0.02 0.02 z M58.934999999999995 15.98 c0.02 0 0.02 0 0.02 -0.02 s-0.06 -0.06 -0.1 -0.08 l-0.04 0 l0.04 0.06 z M58.614999999999995 16 c0.02 0 0.04 -0.02 0.04 -0.04 l0 -0.04 c-0.02 0 -0.04 0.02 -0.04 0.04 l0 0.04 z M58.934999999999995 16.1 l-0.06 -0.06 l-0.02 0.02 z M59.095 16.4 l-0.06 -0.02 c-0.02 0 -0.04 -0.02 -0.04 -0.04 s0.02 -0.04 0.06 -0.06 l0.04 -0.02 l0 0.14 z M58.714999999999996 16.34 l0.02 -0.02 c0.02 -0.02 0.02 -0.06 0.02 -0.06 c0 -0.02 0 -0.02 -0.02 -0.02 s-0.02 0.02 -0.02 0.06 l0 0.04 z M59.035 16.52 l-0.04 -0.02 l0.04 -0.04 l0.04 0.04 z M58.375 16.5 c0.02 0 0.02 -0.02 0.02 -0.04 c0 -0.04 0 -0.04 -0.02 -0.04 c-0.02 0.02 -0.02 0.06 -0.02 0.06 z M58.834999999999994 16.58 l-0.02 -0.04 l0.06 0.02 z M58.654999999999994 16.66 c0.02 0 0.02 0 0.02 -0.02 s-0.02 -0.04 -0.04 -0.04 l-0.02 0 l0 0.02 z M56.595 16.48 l-0.02 -0.06 l0.02 0 l-0.02 0 l0 0.02 c0 0.04 0 0.04 0.02 0.04 z M58.69499999999999 16.759999999999998 c0.04 0 0.06 0 0.06 -0.02 s0 -0.02 -0.02 -0.02 l-0.08 0.02 c0 0.02 0.02 0.02 0.04 0.02 z M58.574999999999996 16.86 l0.04 -0.02 l0.02 -0.02 l-0.02 -0.02 l-0.04 0.02 l-0.02 0.02 z M58.735 16.92 c-0.02 0 -0.02 -0.02 -0.02 -0.04 l0 -0.02 l0.02 0 l0.02 0.04 c0 0.02 0 0.02 -0.02 0.02 z M58.315 16.88 c0.02 0 0.06 -0.02 0.06 -0.04 l0 -0.02 l-0.04 0.02 c-0.02 0 -0.04 0.04 -0.04 0.04 l0.02 0 z M58.474999999999994 16.92 l0.08 -0.02 l-0.02 -0.02 l-0.04 -0.02 l-0.04 0.02 l-0.02 0.02 z M58.294999999999995 17.08 l0.02 -0.02 c0.02 -0.02 0.06 -0.06 0.08 -0.06 l0 -0.04 l-0.04 0 c-0.06 0.02 -0.1 0.02 -0.1 0.04 z M58.035 17.32 l0.06 -0.04 c0.02 -0.02 0.04 -0.04 0.04 -0.06 s0 -0.02 0.02 -0.02 s0.06 -0.04 0.06 -0.06 l0.02 -0.04 s-0.02 0 -0.02 0.02 l-0.08 0.06 c-0.02 0 -0.04 0.02 -0.04 0.04 s-0.02 0.04 -0.04 0.06 z M58.394999999999996 17.22 c-0.02 0 -0.02 -0.02 -0.02 -0.04 c0 0 0 -0.02 0.02 -0.02 s0.02 0 0.02 0.02 z M58.315 17.2 l-0.02 -0.04 l-0.02 0 l0 0.02 c0 0.02 0 0.02 0.02 0.02 l0.02 0 z M58.175 17.44 c0.02 0 0.02 0 0.02 -0.02 l0 -0.02 c-0.02 0 -0.02 0 -0.02 0.02 l-0.02 0.02 l0.02 0 z"></path>
  </g>
</svg>
